  0
SECTION
  2
HEADER
  9
$ACADVER
  1
AC1009
  9
$INSBASE
 10
0.0
 20
0.0
 30
0.0
  9
$EXTMIN
 10
4.747368
 20
2.233708
 30
0.0
  9
$EXTMAX
 10
4.847368
 20
2.333708
 30
0.0
  9
$LIMMIN
 10
0.0
 20
0.0
  9
$LIMMAX
 10
12.0
 20
9.0
  9
$ORTHOMODE
 70
     1
  9
$REGENMODE
 70
     1
  9
$FILLMODE
 70
     1
  9
$QTEXTMODE
 70
     0
  9
$MIRRTEXT
 70
     1
  9
$DRAGMODE
 70
     2
  9
$LTSCALE
 40
1.0
  9
$OSMODE
 70
     0
  9
$ATTMODE
 70
     1
  9
$TEXTSIZE
 40
0.18
  9
$TRACEWID
 40
0.05
  9
$TEXTSTYLE
  7
STANDARD
  9
$CLAYER
  8
0
  9
$CELTYPE
  6
BYLAYER
  9
$CECOLOR
 62
   256
  9
$DIMSCALE
 40
1.0
  9
$DIMASZ
 40
0.18
  9
$DIMEXO
 40
0.0625
  9
$DIMDLI
 40
0.38
  9
$DIMRND
 40
0.0
  9
$DIMDLE
 40
0.0
  9
$DIMEXE
 40
0.18
  9
$DIMTP
 40
0.0
  9
$DIMTM
 40
0.0
  9
$DIMTXT
 40
0.18
  9
$DIMCEN
 40
0.09
  9
$DIMTSZ
 40
0.0
  9
$DIMTOL
 70
     0
  9
$DIMLIM
 70
     0
  9
$DIMTIH
 70
     1
  9
$DIMTOH
 70
     1
  9
$DIMSE1
 70
     0
  9
$DIMSE2
 70
     0
  9
$DIMTAD
 70
     0
  9
$DIMZIN
 70
     0
  9
$DIMBLK
  1

  9
$DIMASO
 70
     1
  9
$DIMSHO
 70
     1
  9
$DIMPOST
  1

  9
$DIMAPOST
  1

  9
$DIMALT
 70
     0
  9
$DIMALTD
 70
     2
  9
$DIMALTF
 40
25.4
  9
$DIMLFAC
 40
1.0
  9
$DIMTOFL
 70
     0
  9
$DIMTVP
 40
0.0
  9
$DIMTIX
 70
     0
  9
$DIMSOXD
 70
     0
  9
$DIMSAH
 70
     0
  9
$DIMBLK1
  1

  9
$DIMBLK2
  1

  9
$DIMSTYLE
  2
*UNNAMED
  9
$DIMCLRD
 70
     0
  9
$DIMCLRE
 70
     0
  9
$DIMCLRT
 70
     0
  9
$DIMTFAC
 40
1.0
  9
$DIMGAP
 40
0.09
  9
$LUNITS
 70
     2
  9
$LUPREC
 70
     3
  9
$SKETCHINC
 40
0.1
  9
$FILLETRAD
 40
0.0
  9
$AUNITS
 70
     2
  9
$AUPREC
 70
     2
  9
$MENU
  1
acad
  9
$ELEVATION
 40
0.0
  9
$PELEVATION
 40
0.0
  9
$THICKNESS
 40
0.0
  9
$LIMCHECK
 70
     0
  9
$BLIPMODE
 70
     1
  9
$CHAMFERA
 40
0.0
  9
$CHAMFERB
 40
0.0
  9
$SKPOLY
 70
     0
  9
$TDCREATE
 40
2449170.661872453
  9
$TDUPDATE
 40
2450171.471453935
  9
$TDINDWG
 40
0.1179251157
  9
$TDUSRTIMER
 40
0.1179251157
  9
$USRTIMER
 70
     1
  9
$ANGBASE
 50
0.0
  9
$ANGDIR
 70
     0
  9
$PDMODE
 70
     2
  9
$PDSIZE
 40
0.05
  9
$PLINEWID
 40
0.0
  9
$COORDS
 70
     0
  9
$SPLFRAME
 70
     0
  9
$SPLINETYPE
 70
     6
  9
$SPLINESEGS
 70
     8
  9
$ATTDIA
 70
     0
  9
$ATTREQ
 70
     1
  9
$HANDLING
 70
     0
  9
$HANDSEED
  5
0
  9
$SURFTAB1
 70
     6
  9
$SURFTAB2
 70
     6
  9
$SURFTYPE
 70
     6
  9
$SURFU
 70
     6
  9
$SURFV
 70
     6
  9
$UCSNAME
  2

  9
$UCSORG
 10
0.0
 20
0.0
 30
0.0
  9
$UCSXDIR
 10
1.0
 20
0.0
 30
0.0
  9
$UCSYDIR
 10
0.0
 20
1.0
 30
0.0
  9
$PUCSNAME
  2

  9
$PUCSORG
 10
0.0
 20
0.0
 30
0.0
  9
$PUCSXDIR
 10
1.0
 20
0.0
 30
0.0
  9
$PUCSYDIR
 10
0.0
 20
1.0
 30
0.0
  9
$USERI1
 70
     0
  9
$USERI2
 70
     0
  9
$USERI3
 70
     0
  9
$USERI4
 70
     0
  9
$USERI5
 70
     0
  9
$USERR1
 40
0.0
  9
$USERR2
 40
0.0
  9
$USERR3
 40
0.0
  9
$USERR4
 40
0.0
  9
$USERR5
 40
0.0
  9
$WORLDVIEW
 70
     1
  9
$SHADEDGE
 70
     3
  9
$SHADEDIF
 70
    70
  9
$TILEMODE
 70
     1
  9
$MAXACTVP
 70
    16
  9
$PINSBASE
 10
0.0
 20
0.0
 30
0.0
  9
$PLIMCHECK
 70
     0
  9
$PEXTMIN
 10
1.000000E+20
 20
1.000000E+20
 30
1.000000E+20
  9
$PEXTMAX
 10
-1.000000E+20
 20
-1.000000E+20
 30
-1.000000E+20
  9
$PLIMMIN
 10
0.0
 20
0.0
  9
$PLIMMAX
 10
12.0
 20
9.0
  9
$UNITMODE
 70
     0
  9
$VISRETAIN
 70
     0
  9
$PLINEGEN
 70
     0
  9
$PSLTSCALE
 70
     1
  9
$TREEDEPTH
 70
  3020
  9
$DWGCODEPAGE
  3
dos850
  0
ENDSEC
  0
SECTION
  2
TABLES
  0
TABLE
  2
VPORT
 70
     2
  0
VPORT
  2
*ACTIVE
 70
     0
 10
0.0
 20
0.0
 11
1.0
 21
1.0
 12
6.163227
 22
4.5
 13
0.0
 23
0.0
 14
1.0
 24
1.0
 15
0.0
 25
0.0
 16
0.0
 26
0.0
 36
1.0
 17
0.0
 27
0.0
 37
0.0
 40
9.0
 41
1.369606
 42
50.0
 43
0.0
 44
0.0
 50
0.0
 51
0.0
 71
     0
 72
   100
 73
     1
 74
     1
 75
     0
 76
     0
 77
     0
 78
     0
  0
ENDTAB
  0
TABLE
  2
LTYPE
 70
     1
  0
LTYPE
  2
CONTINUOUS
 70
    64
  3
Solid line
 72
    65
 73
     0
 40
0.0
  0
ENDTAB
  0
TABLE
  2
LAYER
 70
    12
  0
LAYER
  2
0
 70
    64
 62
     7
  6
CONTINUOUS
  0
LAYER
  2
legenda
 70
    64
 62
     7
  6
CONTINUOUS
  0
LAYER
  2
legenda_cercadura_exterior
 70
    64
 62
     7
  6
CONTINUOUS
  0
LAYER
  2
legenda_cercadura_interior
 70
    64
 62
     2
  6
CONTINUOUS
  0
LAYER
  2
legenda_guitarra_exterior
 70
    64
 62
     3
  6
CONTINUOUS
  0
LAYER
  2
legenda_guitarra_interior
 70
    64
 62
     7
  6
CONTINUOUS
  0
LAYER
  2
legenda_guitarra_texto
 70
    64
 62
     7
  6
CONTINUOUS
  0
LAYER
  2
perfil
 70
    64
 62
     7
  6
CONTINUOUS
  0
LAYER
  2
perfil_arvores
 70
    64
 62
     40
  6
CONTINUOUS
  0
LAYER
  2
perfil_cabos
 70
    64
 62
     7
  6
CONTINUOUS
  0
LAYER
  2
perfil_curva_1
 70
    64
 62
     90
  6
CONTINUOUS
  0
LAYER
  2
perfil_curva_2
 70
    64
 62
     20
  6
CONTINUOUS
  0
LAYER
  2
perfil_postes
 70
    64
 62
     4
  6
CONTINUOUS
  0
LAYER
  2
perfil_Terreno
 70
    64
 62
     6
  6
CONTINUOUS
  0
LAYER
  2
planta
 70
    64
 62
     7
  6
CONTINUOUS
  0
LAYER
  2
planta_arvores
 70
    64
 62
     40
  6
CONTINUOUS
  0
LAYER
  2
planta_cadastro
 70
    64
 62
     7
  6
CONTINUOUS
  0
LAYER
  2
planta_cotas
 70
    64
 62
     7
  6
CONTINUOUS
  0
LAYER
  2
planta_linha
 70
    64
 62
     6
  6
CONTINUOUS
  0
LAYER
  2
planta_numeros
 70
    64
 62
     7
  6
CONTINUOUS
  0
LAYER
  2
planta_pontos
 70
    64
 62
     7
  6
CONTINUOUS
  0
LAYER
  2
planta_postes
 70
    64
 62
     3
  6
CONTINUOUS
  0
LAYER
  2
view_port
 70
    64
 62
     7
  6
CONTINUOUS
  0
ENDTAB
  0
TABLE
  2
STYLE
 70
     3
  0
STYLE
  2
STANDARD
 70
    64
 40
0.0
 41
1.0
 50
0.0
 71
     0
 42
0.18
  3
romans
  4

  0
ENDTAB
  0
TABLE
  2
VIEW
 70
     0
  0
ENDTAB
  0
TABLE
  2
UCS
 70
     0
  0
ENDTAB
  0
TABLE
  2
APPID
 70
     1
  0
APPID
  2
ACAD
 70
    64
  0
ENDTAB
  0
TABLE
  2
DIMSTYLE
 70
     0
  0
ENDTAB
  0
ENDSEC
  0
SECTION
  2
HEADER
  9
$ACADVER
  1
AC1009
  0
ENDSEC
  0
SECTION
  2
BLOCKS
  0
BLOCK
  2
POSTEMETALICO
  70
0
 10
0
 20
0
 30
0
  3
POSTEMETALICO
0
LINE
 8
PLANTA_POSTES
 6
CONTINUOUS
 62
0
 10
-1.5
 20
1.5
 30
0
 11
1.5
 21
1.5
 31
0
0
LINE
 8
PLANTA_POSTES
 6
CONTINUOUS
 62
0
 10
1.5
 20
1.5
 30
0
 11
1.5
 21
-1.5
 31
0
0
LINE
 8
PLANTA_POSTES
 6
CONTINUOUS
 62
0
 10
1.5
 20
-1.5
 30
0
 11
-1.5
 21
-1.5
 31
0
0
LINE
 8
PLANTA_POSTES
 6
CONTINUOUS
 62
0
 10
-1.5
 20
-1.5
 30
0
 11
-1.5
 21
1.5
 31
0
0
LINE
 8
PLANTA_POSTES
 6
CONTINUOUS
 62
0
 10
-1.5
 20
1.5
 30
0
 11
1.5
 21
-1.5
 31
0
0
LINE
 8
PLANTA_POSTES
 6
CONTINUOUS
 62
0
 10
1.5
 20
1.5
 30
0
 11
-1.5
 21
-1.5
 31
0
  0
ENDBLK
  0
BLOCK
  2
POSTEBETAO
  70
0
 10
0
 20
0
 30
0
  3
POSTEBETAO
0
CIRCLE
 8
PLANTA_POSTES
 6
CONTINUOUS
 62
0
 10
0
 20
0
 30
0
 40
3
  0
ENDBLK
  0
BLOCK
  2
PAUTA
  70
4
 10
0
 20
0
 30
0
  3
PAUTA
  1
pauta.dwg
  0
ENDBLK
  0
BLOCK
  2
legenda
  70
4
 10
0
 20
0
 30
0
  3
legenda
  1
p:\taqui\projecto\base dados\legenda.dwg
  0
ENDBLK
  0
ENDSEC
  0
SECTION
  2
ENTITIES
 0
LINE
 8
LEGENDA_GUITARRA_TEXTO
 6
CONTINUOUS
 62
     256
 10
0.000000e+00
 20
0.000000e+00
 30
0.000000e+00
 11
0.000000e+00
 21
0.000000e+00
 31
0.000000e+00
 0
LINE
 8
PERFIL_POSTES
 6
CONTINUOUS
 62
     256
 10
-3.000000e+00
 20
0.000000e+00
 30
0.000000e+00
 11
0.000000e+00
 21
1.225000e+02
 31
0.000000e+00
 0
LINE
 8
PERFIL_POSTES
 6
CONTINUOUS
 62
     256
 10
3.000000e+00
 20
0.000000e+00
 30
0.000000e+00
 11
0.000000e+00
 21
1.225000e+02
 31
0.000000e+00
 0
LINE
 8
PERFIL_POSTES
 6
CONTINUOUS
 62
     256
 10
0.000000e+00
 20
1.225000e+02
 30
0.000000e+00
 11
0.000000e+00
 21
1.231500e+02
 31
0.000000e+00
  0
INSERT
  8
PLANTA_POSTES
  2
POSTEBETAO
 10
0.000000e+00
 20
-1.675000e+02
 30
0.000000e+00
  0
POINT
  8
PLANTA_POSTES
 62
     256
 10
0.000000e+00
 20
-1.675000e+02
 30
0.000000e+00
  0
POINT
  8
PERFIL_POSTES
 62
     256
 10
0.000000e+00
 20
1.031000e+02
 30
0.000000e+00
  0
POINT
  8
PERFIL_POSTES
 62
     256
 10
0.000000e+00
 20
1.031000e+02
 30
0.000000e+00
  0
TEXT
  8
LEGENDA_GUITARRA_TEXTO
 72
     4
 73
 2
 62
     256
 10
0.000000e+00
 20
-5.000000e+00
 30
0.000000e+00
 11
0.000000e+00
 21
-5.000000e+00
 31
0.000000e+00
 40
4.500000e+00
 50
0.000000e+00
  1
0.00
  0
TEXT
  8
LEGENDA_GUITARRA_TEXTO
 72
     4
 73
 2
 62
     256
 10
0.000000e+00
 20
-1.500000e+01
 30
0.000000e+00
 11
0.000000e+00
 21
-1.500000e+01
 31
0.000000e+00
 40
4.500000e+00
 50
0.000000e+00
  1
0
  0
TEXT
  8
LEGENDA_GUITARRA_TEXTO
 72
     4
 73
 2
 62
     256
 10
0.000000e+00
 20
-2.500000e+01
 30
0.000000e+00
 11
0.000000e+00
 21
-2.500000e+01
 31
0.000000e+00
 40
4.500000e+00
 50
0.000000e+00
  1
K16-125/50-28
  0
TEXT
  8
LEGENDA_GUITARRA_TEXTO
 72
     4
 73
 2
 62
     256
 10
0.000000e+00
 20
-3.500000e+01
 30
0.000000e+00
 11
0.000000e+00
 21
-3.500000e+01
 31
0.000000e+00
 40
4.500000e+00
 50
0.000000e+00
  1
20.62
  0
TEXT
  8
LEGENDA_GUITARRA_TEXTO
 72
     4
 73
 2
 62
     256
 10
0.000000e+00
 20
-4.500000e+01
 30
0.000000e+00
 11
0.000000e+00
 21
-4.500000e+01
 31
0.000000e+00
 40
4.500000e+00
 50
0.000000e+00
  1
GAL-AT
  0
TEXT
  8
LEGENDA_GUITARRA_TEXTO
 72
     4
 73
 2
 62
     256
 10
0.000000e+00
 20
-5.500000e+01
 30
0.000000e+00
 11
0.000000e+00
 21
-5.500000e+01
 31
0.000000e+00
 40
4.500000e+00
 50
0.000000e+00
  1
ARH
  0
TEXT
  8
LEGENDA_GUITARRA_TEXTO
 72
     4
 73
 2
 62
     256
 10
0.000000e+00
 20
-7.500000e+01
 30
0.000000e+00
 11
0.000000e+00
 21
-7.500000e+01
 31
0.000000e+00
 40
4.500000e+00
 50
0.000000e+00
  1
0.00
  0
TEXT
  8
PERFIL_POSTES
 72
     4
 73
 2
 62
     256
 10
0.000000e+00
 20
1.381500e+02
 30
0.000000e+00
 11
0.000000e+00
 21
1.381500e+02
 31
0.000000e+00
 40
4.500000e+00
 50
0.000000e+00
  1
0
 0
LINE
 8
LEGENDA_GUITARRA_TEXTO
 6
CONTINUOUS
 62
     256
 10
0.000000e+00
 20
-6.000000e+01
 30
0.000000e+00
 11
0.000000e+00
 21
-7.000000e+01
 31
0.000000e+00
 0
LINE
 8
LEGENDA_GUITARRA_TEXTO
 6
CONTINUOUS
 62
     256
 10
2.000000e+02
 20
0.000000e+00
 30
0.000000e+00
 11
2.000000e+02
 21
0.000000e+00
 31
0.000000e+00
 0
LINE
 8
PERFIL_POSTES
 6
CONTINUOUS
 62
     256
 10
1.970000e+02
 20
0.000000e+00
 30
0.000000e+00
 11
2.000000e+02
 21
1.225000e+02
 31
0.000000e+00
 0
LINE
 8
PERFIL_POSTES
 6
CONTINUOUS
 62
     256
 10
2.030000e+02
 20
0.000000e+00
 30
0.000000e+00
 11
2.000000e+02
 21
1.225000e+02
 31
0.000000e+00
 0
LINE
 8
PERFIL_POSTES
 6
CONTINUOUS
 62
     256
 10
2.000000e+02
 20
1.225000e+02
 30
0.000000e+00
 11
2.000000e+02
 21
1.231500e+02
 31
0.000000e+00
  0
INSERT
  8
PLANTA_POSTES
  2
POSTEBETAO
 10
2.000000e+02
 20
-1.675000e+02
 30
0.000000e+00
  0
POINT
  8
PLANTA_POSTES
 62
     256
 10
2.000000e+02
 20
-1.675000e+02
 30
0.000000e+00
  0
POINT
  8
PERFIL_POSTES
 62
     256
 10
2.000000e+02
 20
1.031000e+02
 30
0.000000e+00
  0
POINT
  8
PERFIL_POSTES
 62
     256
 10
2.000000e+02
 20
1.031000e+02
 30
0.000000e+00
  0
TEXT
  8
LEGENDA_GUITARRA_TEXTO
 72
     4
 73
 2
 62
     256
 10
2.000000e+02
 20
-5.000000e+00
 30
0.000000e+00
 11
2.000000e+02
 21
-5.000000e+00
 31
0.000000e+00
 40
4.500000e+00
 50
0.000000e+00
  1
0.00
  0
TEXT
  8
LEGENDA_GUITARRA_TEXTO
 72
     4
 73
 2
 62
     256
 10
2.000000e+02
 20
-1.500000e+01
 30
0.000000e+00
 11
2.000000e+02
 21
-1.500000e+01
 31
0.000000e+00
 40
4.500000e+00
 50
0.000000e+00
  1
1
  0
TEXT
  8
LEGENDA_GUITARRA_TEXTO
 72
     4
 73
 2
 62
     256
 10
2.000000e+02
 20
-2.500000e+01
 30
0.000000e+00
 11
2.000000e+02
 21
-2.500000e+01
 31
0.000000e+00
 40
4.500000e+00
 50
0.000000e+00
  1
K16-125/50-28
  0
TEXT
  8
LEGENDA_GUITARRA_TEXTO
 72
     4
 73
 2
 62
     256
 10
2.000000e+02
 20
-3.500000e+01
 30
0.000000e+00
 11
2.000000e+02
 21
-3.500000e+01
 31
0.000000e+00
 40
4.500000e+00
 50
0.000000e+00
  1
20.62
  0
TEXT
  8
LEGENDA_GUITARRA_TEXTO
 72
     4
 73
 2
 62
     256
 10
2.000000e+02
 20
-4.500000e+01
 30
0.000000e+00
 11
2.000000e+02
 21
-4.500000e+01
 31
0.000000e+00
 40
4.500000e+00
 50
0.000000e+00
  1
GAL-AT
  0
TEXT
  8
LEGENDA_GUITARRA_TEXTO
 72
     4
 73
 2
 62
     256
 10
2.000000e+02
 20
-5.500000e+01
 30
0.000000e+00
 11
2.000000e+02
 21
-5.500000e+01
 31
0.000000e+00
 40
4.500000e+00
 50
0.000000e+00
  1
ARH
  0
TEXT
  8
LEGENDA_GUITARRA_TEXTO
 72
     4
 73
 2
 62
     256
 10
2.000000e+02
 20
-7.500000e+01
 30
0.000000e+00
 11
2.000000e+02
 21
-7.500000e+01
 31
0.000000e+00
 40
4.500000e+00
 50
0.000000e+00
  1
200.00
  0
TEXT
  8
PERFIL_POSTES
 72
     4
 73
 2
 62
     256
 10
2.000000e+02
 20
1.381500e+02
 30
0.000000e+00
 11
2.000000e+02
 21
1.381500e+02
 31
0.000000e+00
 40
4.500000e+00
 50
0.000000e+00
  1
1
 0
LINE
 8
LEGENDA_GUITARRA_TEXTO
 6
CONTINUOUS
 62
     256
 10
2.000000e+02
 20
-6.000000e+01
 30
0.000000e+00
 11
2.000000e+02
 21
-7.000000e+01
 31
0.000000e+00
 0
LINE
 8
LEGENDA_GUITARRA_TEXTO
 6
CONTINUOUS
 62
     256
 10
3.500000e+02
 20
0.000000e+00
 30
0.000000e+00
 11
3.500000e+02
 21
0.000000e+00
 31
0.000000e+00
 0
LINE
 8
PERFIL_POSTES
 6
CONTINUOUS
 62
     256
 10
3.470000e+02
 20
0.000000e+00
 30
0.000000e+00
 11
3.500000e+02
 21
1.225000e+02
 31
0.000000e+00
 0
LINE
 8
PERFIL_POSTES
 6
CONTINUOUS
 62
     256
 10
3.530000e+02
 20
0.000000e+00
 30
0.000000e+00
 11
3.500000e+02
 21
1.225000e+02
 31
0.000000e+00
 0
LINE
 8
PERFIL_POSTES
 6
CONTINUOUS
 62
     256
 10
3.500000e+02
 20
1.225000e+02
 30
0.000000e+00
 11
3.500000e+02
 21
1.231500e+02
 31
0.000000e+00
  0
INSERT
  8
PLANTA_POSTES
  2
POSTEBETAO
 10
3.500000e+02
 20
-1.675000e+02
 30
0.000000e+00
  0
POINT
  8
PLANTA_POSTES
 62
     256
 10
3.500000e+02
 20
-1.675000e+02
 30
0.000000e+00
  0
POINT
  8
PERFIL_POSTES
 62
     256
 10
3.500000e+02
 20
1.031000e+02
 30
0.000000e+00
  0
POINT
  8
PERFIL_POSTES
 62
     256
 10
3.500000e+02
 20
9.910000e+01
 30
0.000000e+00
  0
TEXT
  8
LEGENDA_GUITARRA_TEXTO
 72
     4
 73
 2
 62
     256
 10
3.500000e+02
 20
-5.000000e+00
 30
0.000000e+00
 11
3.500000e+02
 21
-5.000000e+00
 31
0.000000e+00
 40
4.500000e+00
 50
0.000000e+00
  1
0.00
  0
TEXT
  8
LEGENDA_GUITARRA_TEXTO
 72
     4
 73
 2
 62
     256
 10
3.500000e+02
 20
-1.500000e+01
 30
0.000000e+00
 11
3.500000e+02
 21
-1.500000e+01
 31
0.000000e+00
 40
4.500000e+00
 50
0.000000e+00
  1
2
  0
TEXT
  8
LEGENDA_GUITARRA_TEXTO
 72
     4
 73
 2
 62
     256
 10
3.500000e+02
 20
-2.500000e+01
 30
0.000000e+00
 11
3.500000e+02
 21
-2.500000e+01
 31
0.000000e+00
 40
4.500000e+00
 50
0.000000e+00
  1
K16-125/50-28
  0
TEXT
  8
LEGENDA_GUITARRA_TEXTO
 72
     4
 73
 2
 62
     256
 10
3.500000e+02
 20
-3.500000e+01
 30
0.000000e+00
 11
3.500000e+02
 21
-3.500000e+01
 31
0.000000e+00
 40
4.500000e+00
 50
0.000000e+00
  1
19.82
  0
TEXT
  8
LEGENDA_GUITARRA_TEXTO
 72
     4
 73
 2
 62
     256
 10
3.500000e+02
 20
-4.500000e+01
 30
0.000000e+00
 11
3.500000e+02
 21
-4.500000e+01
 31
0.000000e+00
 40
4.500000e+00
 50
0.000000e+00
  1
GAL-AT
  0
TEXT
  8
LEGENDA_GUITARRA_TEXTO
 72
     4
 73
 2
 62
     256
 10
3.500000e+02
 20
-5.500000e+01
 30
0.000000e+00
 11
3.500000e+02
 21
-5.500000e+01
 31
0.000000e+00
 40
4.500000e+00
 50
0.000000e+00
  1
SHR
  0
TEXT
  8
LEGENDA_GUITARRA_TEXTO
 72
     4
 73
 2
 62
     256
 10
3.500000e+02
 20
-7.500000e+01
 30
0.000000e+00
 11
3.500000e+02
 21
-7.500000e+01
 31
0.000000e+00
 40
4.500000e+00
 50
0.000000e+00
  1
350.00
  0
TEXT
  8
PERFIL_POSTES
 72
     4
 73
 2
 62
     256
 10
3.500000e+02
 20
1.381500e+02
 30
0.000000e+00
 11
3.500000e+02
 21
1.381500e+02
 31
0.000000e+00
 40
4.500000e+00
 50
0.000000e+00
  1
2
 0
LINE
 8
LEGENDA_GUITARRA_TEXTO
 6
CONTINUOUS
 62
     256
 10
3.500000e+02
 20
-6.000000e+01
 30
0.000000e+00
 11
3.500000e+02
 21
-7.000000e+01
 31
0.000000e+00
 0
LINE
 8
LEGENDA_GUITARRA_TEXTO
 6
CONTINUOUS
 62
     256
 10
6.000000e+02
 20
0.000000e+00
 30
0.000000e+00
 11
6.000000e+02
 21
0.000000e+00
 31
0.000000e+00
 0
LINE
 8
PERFIL_POSTES
 6
CONTINUOUS
 62
     256
 10
5.970000e+02
 20
0.000000e+00
 30
0.000000e+00
 11
6.000000e+02
 21
1.225000e+02
 31
0.000000e+00
 0
LINE
 8
PERFIL_POSTES
 6
CONTINUOUS
 62
     256
 10
6.030000e+02
 20
0.000000e+00
 30
0.000000e+00
 11
6.000000e+02
 21
1.225000e+02
 31
0.000000e+00
 0
LINE
 8
PERFIL_POSTES
 6
CONTINUOUS
 62
     256
 10
6.000000e+02
 20
1.225000e+02
 30
0.000000e+00
 11
6.000000e+02
 21
1.231500e+02
 31
0.000000e+00
  0
INSERT
  8
PLANTA_POSTES
  2
POSTEBETAO
 10
6.000000e+02
 20
-1.675000e+02
 30
0.000000e+00
  0
POINT
  8
PLANTA_POSTES
 62
     256
 10
6.000000e+02
 20
-1.675000e+02
 30
0.000000e+00
  0
POINT
  8
PERFIL_POSTES
 62
     256
 10
6.000000e+02
 20
1.031000e+02
 30
0.000000e+00
  0
POINT
  8
PERFIL_POSTES
 62
     256
 10
6.000000e+02
 20
1.031000e+02
 30
0.000000e+00
  0
TEXT
  8
LEGENDA_GUITARRA_TEXTO
 72
     4
 73
 2
 62
     256
 10
6.000000e+02
 20
-5.000000e+00
 30
0.000000e+00
 11
6.000000e+02
 21
-5.000000e+00
 31
0.000000e+00
 40
4.500000e+00
 50
0.000000e+00
  1
0.00
  0
TEXT
  8
LEGENDA_GUITARRA_TEXTO
 72
     4
 73
 2
 62
     256
 10
6.000000e+02
 20
-1.500000e+01
 30
0.000000e+00
 11
6.000000e+02
 21
-1.500000e+01
 31
0.000000e+00
 40
4.500000e+00
 50
0.000000e+00
  1
3
  0
TEXT
  8
LEGENDA_GUITARRA_TEXTO
 72
     4
 73
 2
 62
     256
 10
6.000000e+02
 20
-2.500000e+01
 30
0.000000e+00
 11
6.000000e+02
 21
-2.500000e+01
 31
0.000000e+00
 40
4.500000e+00
 50
0.000000e+00
  1
K16-125/50-28
  0
TEXT
  8
LEGENDA_GUITARRA_TEXTO
 72
     4
 73
 2
 62
     256
 10
6.000000e+02
 20
-3.500000e+01
 30
0.000000e+00
 11
6.000000e+02
 21
-3.500000e+01
 31
0.000000e+00
 40
4.500000e+00
 50
0.000000e+00
  1
20.62
  0
TEXT
  8
LEGENDA_GUITARRA_TEXTO
 72
     4
 73
 2
 62
     256
 10
6.000000e+02
 20
-4.500000e+01
 30
0.000000e+00
 11
6.000000e+02
 21
-4.500000e+01
 31
0.000000e+00
 40
4.500000e+00
 50
0.000000e+00
  1
GAL-AT
  0
TEXT
  8
LEGENDA_GUITARRA_TEXTO
 72
     4
 73
 2
 62
     256
 10
6.000000e+02
 20
-5.500000e+01
 30
0.000000e+00
 11
6.000000e+02
 21
-5.500000e+01
 31
0.000000e+00
 40
4.500000e+00
 50
0.000000e+00
  1
ARH
  0
TEXT
  8
LEGENDA_GUITARRA_TEXTO
 72
     4
 73
 2
 62
     256
 10
6.000000e+02
 20
-7.500000e+01
 30
0.000000e+00
 11
6.000000e+02
 21
-7.500000e+01
 31
0.000000e+00
 40
4.500000e+00
 50
0.000000e+00
  1
600.00
  0
TEXT
  8
PERFIL_POSTES
 72
     4
 73
 2
 62
     256
 10
6.000000e+02
 20
1.381500e+02
 30
0.000000e+00
 11
6.000000e+02
 21
1.381500e+02
 31
0.000000e+00
 40
4.500000e+00
 50
0.000000e+00
  1
3
 0
LINE
 8
LEGENDA_GUITARRA_TEXTO
 6
CONTINUOUS
 62
     256
 10
6.000000e+02
 20
-6.000000e+01
 30
0.000000e+00
 11
6.000000e+02
 21
-7.000000e+01
 31
0.000000e+00
  0
TEXT
  8
LEGENDA_GUITARRA_TEXTO
 72
     4
 73
 2
 62
     256
 10
1.000000e+02
 20
-6.500000e+01
 30
0.000000e+00
 11
1.000000e+02
 21
-6.500000e+01
 31
0.000000e+00
 40
4.500000e+00
 50
0.000000e+00
  1
200.00
  0
TEXT
  8
LEGENDA_GUITARRA_TEXTO
 72
     4
 73
 2
 62
     256
 10
2.750000e+02
 20
-6.500000e+01
 30
0.000000e+00
 11
2.750000e+02
 21
-6.500000e+01
 31
0.000000e+00
 40
4.500000e+00
 50
0.000000e+00
  1
150.00
  0
TEXT
  8
LEGENDA_GUITARRA_TEXTO
 72
     4
 73
 2
 62
     256
 10
4.750000e+02
 20
-6.500000e+01
 30
0.000000e+00
 11
4.750000e+02
 21
-6.500000e+01
 31
0.000000e+00
 40
4.500000e+00
 50
0.000000e+00
  1
250.00
  0
TEXT
  8
PERFIL_CABOS
 72
     0
 73
 2
 62
     256
 10
0.000000e+00
 20
2.031500e+02
 30
0.000000e+00
 11
0.000000e+00
 21
2.031500e+02
 31
0.000000e+00
 40
4.500000e+00
 50
0.000000e+00
  1
Cond. 3xALACO215: 9.00daN/mm2 F.Vento: 750N/m2 Gelo: 0 mm (65C)
  0
TEXT
  8
PERFIL_CABOS
 72
     0
 73
 2
 62
     256
 10
0.000000e+00
 20
1.731500e+02
 30
0.000000e+00
 11
0.000000e+00
 21
1.731500e+02
 31
0.000000e+00
 40
4.500000e+00
 50
0.000000e+00
  1
(Pcd=1325m)
  0
POLYLINE
  8
PERFIL_CABOS
 62
     256
 66
     1
 10
0.0
 20
0.0
 30
0.0
  0
VERTEX
  8
PERFIL_CABOS
 62
     256
 10
0.000000e+00
 20
1.156000e+02
 30
0.0
 70
     4
  0
VERTEX
  8
PERFIL_CABOS
 62
     256
 10
4.000000e+00
 20
1.141192e+02
 30
0.0
 70
     4
  0
VERTEX
  8
PERFIL_CABOS
 62
     256
 10
8.000000e+00
 20
1.126990e+02
 30
0.0
 70
     4
  0
VERTEX
  8
PERFIL_CABOS
 62
     256
 10
1.200000e+01
 20
1.113392e+02
 30
0.0
 70
     4
  0
VERTEX
  8
PERFIL_CABOS
 62
     256
 10
1.600000e+01
 20
1.100400e+02
 30
0.0
 70
     4
  0
VERTEX
  8
PERFIL_CABOS
 62
     256
 10
2.000000e+01
 20
1.088013e+02
 30
0.0
 70
     4
  0
VERTEX
  8
PERFIL_CABOS
 62
     256
 10
2.400000e+01
 20
1.076231e+02
 30
0.0
 70
     4
  0
VERTEX
  8
PERFIL_CABOS
 62
     256
 10
2.800000e+01
 20
1.065054e+02
 30
0.0
 70
     4
  0
VERTEX
  8
PERFIL_CABOS
 62
     256
 10
3.200000e+01
 20
1.054482e+02
 30
0.0
 70
     4
  0
VERTEX
  8
PERFIL_CABOS
 62
     256
 10
3.600000e+01
 20
1.044514e+02
 30
0.0
 70
     4
  0
VERTEX
  8
PERFIL_CABOS
 62
     256
 10
4.000000e+01
 20
1.035151e+02
 30
0.0
 70
     4
  0
VERTEX
  8
PERFIL_CABOS
 62
     256
 10
4.400000e+01
 20
1.026392e+02
 30
0.0
 70
     4
  0
VERTEX
  8
PERFIL_CABOS
 62
     256
 10
4.800000e+01
 20
1.018238e+02
 30
0.0
 70
     4
  0
VERTEX
  8
PERFIL_CABOS
 62
     256
 10
5.200000e+01
 20
1.010688e+02
 30
0.0
 70
     4
  0
VERTEX
  8
PERFIL_CABOS
 62
     256
 10
5.600000e+01
 20
1.003742e+02
 30
0.0
 70
     4
  0
VERTEX
  8
PERFIL_CABOS
 62
     256
 10
6.000000e+01
 20
9.974007e+01
 30
0.0
 70
     4
  0
VERTEX
  8
PERFIL_CABOS
 62
     256
 10
6.400000e+01
 20
9.916633e+01
 30
0.0
 70
     4
  0
VERTEX
  8
PERFIL_CABOS
 62
     256
 10
6.800000e+01
 20
9.865300e+01
 30
0.0
 70
     4
  0
VERTEX
  8
PERFIL_CABOS
 62
     256
 10
7.200000e+01
 20
9.820007e+01
 30
0.0
 70
     4
  0
VERTEX
  8
PERFIL_CABOS
 62
     256
 10
7.600000e+01
 20
9.780754e+01
 30
0.0
 70
     4
  0
VERTEX
  8
PERFIL_CABOS
 62
     256
 10
8.000000e+01
 20
9.747540e+01
 30
0.0
 70
     4
  0
VERTEX
  8
PERFIL_CABOS
 62
     256
 10
8.400000e+01
 20
9.720366e+01
 30
0.0
 70
     4
  0
VERTEX
  8
PERFIL_CABOS
 62
     256
 10
8.800000e+01
 20
9.699230e+01
 30
0.0
 70
     4
  0
VERTEX
  8
PERFIL_CABOS
 62
     256
 10
9.200000e+01
 20
9.684134e+01
 30
0.0
 70
     4
  0
VERTEX
  8
PERFIL_CABOS
 62
     256
 10
9.600000e+01
 20
9.675076e+01
 30
0.0
 70
     4
  0
VERTEX
  8
PERFIL_CABOS
 62
     256
 10
1.000000e+02
 20
9.672057e+01
 30
0.0
 70
     4
  0
VERTEX
  8
PERFIL_CABOS
 62
     256
 10
1.040000e+02
 20
9.675076e+01
 30
0.0
 70
     4
  0
VERTEX
  8
PERFIL_CABOS
 62
     256
 10
1.080000e+02
 20
9.684134e+01
 30
0.0
 70
     4
  0
VERTEX
  8
PERFIL_CABOS
 62
     256
 10
1.120000e+02
 20
9.699230e+01
 30
0.0
 70
     4
  0
VERTEX
  8
PERFIL_CABOS
 62
     256
 10
1.160000e+02
 20
9.720366e+01
 30
0.0
 70
     4
  0
VERTEX
  8
PERFIL_CABOS
 62
     256
 10
1.200000e+02
 20
9.747540e+01
 30
0.0
 70
     4
  0
VERTEX
  8
PERFIL_CABOS
 62
     256
 10
1.240000e+02
 20
9.780754e+01
 30
0.0
 70
     4
  0
VERTEX
  8
PERFIL_CABOS
 62
     256
 10
1.280000e+02
 20
9.820007e+01
 30
0.0
 70
     4
  0
VERTEX
  8
PERFIL_CABOS
 62
     256
 10
1.320000e+02
 20
9.865300e+01
 30
0.0
 70
     4
  0
VERTEX
  8
PERFIL_CABOS
 62
     256
 10
1.360000e+02
 20
9.916633e+01
 30
0.0
 70
     4
  0
VERTEX
  8
PERFIL_CABOS
 62
     256
 10
1.400000e+02
 20
9.974007e+01
 30
0.0
 70
     4
  0
VERTEX
  8
PERFIL_CABOS
 62
     256
 10
1.440000e+02
 20
1.003742e+02
 30
0.0
 70
     4
  0
VERTEX
  8
PERFIL_CABOS
 62
     256
 10
1.480000e+02
 20
1.010688e+02
 30
0.0
 70
     4
  0
VERTEX
  8
PERFIL_CABOS
 62
     256
 10
1.520000e+02
 20
1.018238e+02
 30
0.0
 70
     4
  0
VERTEX
  8
PERFIL_CABOS
 62
     256
 10
1.560000e+02
 20
1.026392e+02
 30
0.0
 70
     4
  0
VERTEX
  8
PERFIL_CABOS
 62
     256
 10
1.600000e+02
 20
1.035151e+02
 30
0.0
 70
     4
  0
VERTEX
  8
PERFIL_CABOS
 62
     256
 10
1.640000e+02
 20
1.044514e+02
 30
0.0
 70
     4
  0
VERTEX
  8
PERFIL_CABOS
 62
     256
 10
1.680000e+02
 20
1.054482e+02
 30
0.0
 70
     4
  0
VERTEX
  8
PERFIL_CABOS
 62
     256
 10
1.720000e+02
 20
1.065054e+02
 30
0.0
 70
     4
  0
VERTEX
  8
PERFIL_CABOS
 62
     256
 10
1.760000e+02
 20
1.076231e+02
 30
0.0
 70
     4
  0
VERTEX
  8
PERFIL_CABOS
 62
     256
 10
1.800000e+02
 20
1.088013e+02
 30
0.0
 70
     4
  0
VERTEX
  8
PERFIL_CABOS
 62
     256
 10
1.840000e+02
 20
1.100400e+02
 30
0.0
 70
     4
  0
VERTEX
  8
PERFIL_CABOS
 62
     256
 10
1.880000e+02
 20
1.113392e+02
 30
0.0
 70
     4
  0
VERTEX
  8
PERFIL_CABOS
 62
     256
 10
1.920000e+02
 20
1.126990e+02
 30
0.0
 70
     4
  0
VERTEX
  8
PERFIL_CABOS
 62
     256
 10
1.960000e+02
 20
1.141192e+02
 30
0.0
 70
     4
  0
VERTEX
  8
PERFIL_CABOS
 62
     256
 10
2.000000e+02
 20
1.156000e+02
 30
0.0
 70
     4
   0
SEQEND
  8
PERFIL_CABOS
 62
     256
  0
POLYLINE
  8
PERFIL_CABOS
 62
     256
 66
     1
 10
0.0
 20
0.0
 30
0.0
  0
VERTEX
  8
PERFIL_CABOS
 62
     256
 10
0.000000e+00
 20
1.093500e+02
 30
0.0
 70
     4
  0
VERTEX
  8
PERFIL_CABOS
 62
     256
 10
4.000000e+00
 20
1.078692e+02
 30
0.0
 70
     4
  0
VERTEX
  8
PERFIL_CABOS
 62
     256
 10
8.000000e+00
 20
1.064490e+02
 30
0.0
 70
     4
  0
VERTEX
  8
PERFIL_CABOS
 62
     256
 10
1.200000e+01
 20
1.050892e+02
 30
0.0
 70
     4
  0
VERTEX
  8
PERFIL_CABOS
 62
     256
 10
1.600000e+01
 20
1.037900e+02
 30
0.0
 70
     4
  0
VERTEX
  8
PERFIL_CABOS
 62
     256
 10
2.000000e+01
 20
1.025513e+02
 30
0.0
 70
     4
  0
VERTEX
  8
PERFIL_CABOS
 62
     256
 10
2.400000e+01
 20
1.013731e+02
 30
0.0
 70
     4
  0
VERTEX
  8
PERFIL_CABOS
 62
     256
 10
2.800000e+01
 20
1.002554e+02
 30
0.0
 70
     4
  0
VERTEX
  8
PERFIL_CABOS
 62
     256
 10
3.200000e+01
 20
9.919819e+01
 30
0.0
 70
     4
  0
VERTEX
  8
PERFIL_CABOS
 62
     256
 10
3.600000e+01
 20
9.820142e+01
 30
0.0
 70
     4
  0
VERTEX
  8
PERFIL_CABOS
 62
     256
 10
4.000000e+01
 20
9.726510e+01
 30
0.0
 70
     4
  0
VERTEX
  8
PERFIL_CABOS
 62
     256
 10
4.400000e+01
 20
9.638923e+01
 30
0.0
 70
     4
  0
VERTEX
  8
PERFIL_CABOS
 62
     256
 10
4.800000e+01
 20
9.557380e+01
 30
0.0
 70
     4
  0
VERTEX
  8
PERFIL_CABOS
 62
     256
 10
5.200000e+01
 20
9.481880e+01
 30
0.0
 70
     4
  0
VERTEX
  8
PERFIL_CABOS
 62
     256
 10
5.600000e+01
 20
9.412423e+01
 30
0.0
 70
     4
  0
VERTEX
  8
PERFIL_CABOS
 62
     256
 10
6.000000e+01
 20
9.349007e+01
 30
0.0
 70
     4
  0
VERTEX
  8
PERFIL_CABOS
 62
     256
 10
6.400000e+01
 20
9.291633e+01
 30
0.0
 70
     4
  0
VERTEX
  8
PERFIL_CABOS
 62
     256
 10
6.800000e+01
 20
9.240300e+01
 30
0.0
 70
     4
  0
VERTEX
  8
PERFIL_CABOS
 62
     256
 10
7.200000e+01
 20
9.195007e+01
 30
0.0
 70
     4
  0
VERTEX
  8
PERFIL_CABOS
 62
     256
 10
7.600000e+01
 20
9.155754e+01
 30
0.0
 70
     4
  0
VERTEX
  8
PERFIL_CABOS
 62
     256
 10
8.000000e+01
 20
9.122540e+01
 30
0.0
 70
     4
  0
VERTEX
  8
PERFIL_CABOS
 62
     256
 10
8.400000e+01
 20
9.095366e+01
 30
0.0
 70
     4
  0
VERTEX
  8
PERFIL_CABOS
 62
     256
 10
8.800000e+01
 20
9.074230e+01
 30
0.0
 70
     4
  0
VERTEX
  8
PERFIL_CABOS
 62
     256
 10
9.200000e+01
 20
9.059134e+01
 30
0.0
 70
     4
  0
VERTEX
  8
PERFIL_CABOS
 62
     256
 10
9.600000e+01
 20
9.050076e+01
 30
0.0
 70
     4
  0
VERTEX
  8
PERFIL_CABOS
 62
     256
 10
1.000000e+02
 20
9.047057e+01
 30
0.0
 70
     4
  0
VERTEX
  8
PERFIL_CABOS
 62
     256
 10
1.040000e+02
 20
9.050076e+01
 30
0.0
 70
     4
  0
VERTEX
  8
PERFIL_CABOS
 62
     256
 10
1.080000e+02
 20
9.059134e+01
 30
0.0
 70
     4
  0
VERTEX
  8
PERFIL_CABOS
 62
     256
 10
1.120000e+02
 20
9.074230e+01
 30
0.0
 70
     4
  0
VERTEX
  8
PERFIL_CABOS
 62
     256
 10
1.160000e+02
 20
9.095366e+01
 30
0.0
 70
     4
  0
VERTEX
  8
PERFIL_CABOS
 62
     256
 10
1.200000e+02
 20
9.122540e+01
 30
0.0
 70
     4
  0
VERTEX
  8
PERFIL_CABOS
 62
     256
 10
1.240000e+02
 20
9.155754e+01
 30
0.0
 70
     4
  0
VERTEX
  8
PERFIL_CABOS
 62
     256
 10
1.280000e+02
 20
9.195007e+01
 30
0.0
 70
     4
  0
VERTEX
  8
PERFIL_CABOS
 62
     256
 10
1.320000e+02
 20
9.240300e+01
 30
0.0
 70
     4
  0
VERTEX
  8
PERFIL_CABOS
 62
     256
 10
1.360000e+02
 20
9.291633e+01
 30
0.0
 70
     4
  0
VERTEX
  8
PERFIL_CABOS
 62
     256
 10
1.400000e+02
 20
9.349007e+01
 30
0.0
 70
     4
  0
VERTEX
  8
PERFIL_CABOS
 62
     256
 10
1.440000e+02
 20
9.412423e+01
 30
0.0
 70
     4
  0
VERTEX
  8
PERFIL_CABOS
 62
     256
 10
1.480000e+02
 20
9.481880e+01
 30
0.0
 70
     4
  0
VERTEX
  8
PERFIL_CABOS
 62
     256
 10
1.520000e+02
 20
9.557380e+01
 30
0.0
 70
     4
  0
VERTEX
  8
PERFIL_CABOS
 62
     256
 10
1.560000e+02
 20
9.638923e+01
 30
0.0
 70
     4
  0
VERTEX
  8
PERFIL_CABOS
 62
     256
 10
1.600000e+02
 20
9.726510e+01
 30
0.0
 70
     4
  0
VERTEX
  8
PERFIL_CABOS
 62
     256
 10
1.640000e+02
 20
9.820142e+01
 30
0.0
 70
     4
  0
VERTEX
  8
PERFIL_CABOS
 62
     256
 10
1.680000e+02
 20
9.919819e+01
 30
0.0
 70
     4
  0
VERTEX
  8
PERFIL_CABOS
 62
     256
 10
1.720000e+02
 20
1.002554e+02
 30
0.0
 70
     4
  0
VERTEX
  8
PERFIL_CABOS
 62
     256
 10
1.760000e+02
 20
1.013731e+02
 30
0.0
 70
     4
  0
VERTEX
  8
PERFIL_CABOS
 62
     256
 10
1.800000e+02
 20
1.025513e+02
 30
0.0
 70
     4
  0
VERTEX
  8
PERFIL_CABOS
 62
     256
 10
1.840000e+02
 20
1.037900e+02
 30
0.0
 70
     4
  0
VERTEX
  8
PERFIL_CABOS
 62
     256
 10
1.880000e+02
 20
1.050892e+02
 30
0.0
 70
     4
  0
VERTEX
  8
PERFIL_CABOS
 62
     256
 10
1.920000e+02
 20
1.064490e+02
 30
0.0
 70
     4
  0
VERTEX
  8
PERFIL_CABOS
 62
     256
 10
1.960000e+02
 20
1.078692e+02
 30
0.0
 70
     4
  0
VERTEX
  8
PERFIL_CABOS
 62
     256
 10
2.000000e+02
 20
1.093500e+02
 30
0.0
 70
     4
   0
SEQEND
  8
PERFIL_CABOS
 62
     256
  0
POLYLINE
  8
PERFIL_CABOS
 62
     256
 66
     1
 10
0.0
 20
0.0
 30
0.0
  0
VERTEX
  8
PERFIL_CABOS
 62
     256
 10
0.000000e+00
 20
1.031000e+02
 30
0.0
 70
     4
  0
VERTEX
  8
PERFIL_CABOS
 62
     256
 10
4.000000e+00
 20
1.016192e+02
 30
0.0
 70
     4
  0
VERTEX
  8
PERFIL_CABOS
 62
     256
 10
8.000000e+00
 20
1.001990e+02
 30
0.0
 70
     4
  0
VERTEX
  8
PERFIL_CABOS
 62
     256
 10
1.200000e+01
 20
9.883923e+01
 30
0.0
 70
     4
  0
VERTEX
  8
PERFIL_CABOS
 62
     256
 10
1.600000e+01
 20
9.754003e+01
 30
0.0
 70
     4
  0
VERTEX
  8
PERFIL_CABOS
 62
     256
 10
2.000000e+01
 20
9.630134e+01
 30
0.0
 70
     4
  0
VERTEX
  8
PERFIL_CABOS
 62
     256
 10
2.400000e+01
 20
9.512314e+01
 30
0.0
 70
     4
  0
VERTEX
  8
PERFIL_CABOS
 62
     256
 10
2.800000e+01
 20
9.400543e+01
 30
0.0
 70
     4
  0
VERTEX
  8
PERFIL_CABOS
 62
     256
 10
3.200000e+01
 20
9.294819e+01
 30
0.0
 70
     4
  0
VERTEX
  8
PERFIL_CABOS
 62
     256
 10
3.600000e+01
 20
9.195142e+01
 30
0.0
 70
     4
  0
VERTEX
  8
PERFIL_CABOS
 62
     256
 10
4.000000e+01
 20
9.101510e+01
 30
0.0
 70
     4
  0
VERTEX
  8
PERFIL_CABOS
 62
     256
 10
4.400000e+01
 20
9.013923e+01
 30
0.0
 70
     4
  0
VERTEX
  8
PERFIL_CABOS
 62
     256
 10
4.800000e+01
 20
8.932380e+01
 30
0.0
 70
     4
  0
VERTEX
  8
PERFIL_CABOS
 62
     256
 10
5.200000e+01
 20
8.856880e+01
 30
0.0
 70
     4
  0
VERTEX
  8
PERFIL_CABOS
 62
     256
 10
5.600000e+01
 20
8.787423e+01
 30
0.0
 70
     4
  0
VERTEX
  8
PERFIL_CABOS
 62
     256
 10
6.000000e+01
 20
8.724007e+01
 30
0.0
 70
     4
  0
VERTEX
  8
PERFIL_CABOS
 62
     256
 10
6.400000e+01
 20
8.666633e+01
 30
0.0
 70
     4
  0
VERTEX
  8
PERFIL_CABOS
 62
     256
 10
6.800000e+01
 20
8.615300e+01
 30
0.0
 70
     4
  0
VERTEX
  8
PERFIL_CABOS
 62
     256
 10
7.200000e+01
 20
8.570007e+01
 30
0.0
 70
     4
  0
VERTEX
  8
PERFIL_CABOS
 62
     256
 10
7.600000e+01
 20
8.530754e+01
 30
0.0
 70
     4
  0
VERTEX
  8
PERFIL_CABOS
 62
     256
 10
8.000000e+01
 20
8.497540e+01
 30
0.0
 70
     4
  0
VERTEX
  8
PERFIL_CABOS
 62
     256
 10
8.400000e+01
 20
8.470366e+01
 30
0.0
 70
     4
  0
VERTEX
  8
PERFIL_CABOS
 62
     256
 10
8.800000e+01
 20
8.449230e+01
 30
0.0
 70
     4
  0
VERTEX
  8
PERFIL_CABOS
 62
     256
 10
9.200000e+01
 20
8.434134e+01
 30
0.0
 70
     4
  0
VERTEX
  8
PERFIL_CABOS
 62
     256
 10
9.600000e+01
 20
8.425076e+01
 30
0.0
 70
     4
  0
VERTEX
  8
PERFIL_CABOS
 62
     256
 10
1.000000e+02
 20
8.422057e+01
 30
0.0
 70
     4
  0
VERTEX
  8
PERFIL_CABOS
 62
     256
 10
1.040000e+02
 20
8.425076e+01
 30
0.0
 70
     4
  0
VERTEX
  8
PERFIL_CABOS
 62
     256
 10
1.080000e+02
 20
8.434134e+01
 30
0.0
 70
     4
  0
VERTEX
  8
PERFIL_CABOS
 62
     256
 10
1.120000e+02
 20
8.449230e+01
 30
0.0
 70
     4
  0
VERTEX
  8
PERFIL_CABOS
 62
     256
 10
1.160000e+02
 20
8.470366e+01
 30
0.0
 70
     4
  0
VERTEX
  8
PERFIL_CABOS
 62
     256
 10
1.200000e+02
 20
8.497540e+01
 30
0.0
 70
     4
  0
VERTEX
  8
PERFIL_CABOS
 62
     256
 10
1.240000e+02
 20
8.530754e+01
 30
0.0
 70
     4
  0
VERTEX
  8
PERFIL_CABOS
 62
     256
 10
1.280000e+02
 20
8.570007e+01
 30
0.0
 70
     4
  0
VERTEX
  8
PERFIL_CABOS
 62
     256
 10
1.320000e+02
 20
8.615300e+01
 30
0.0
 70
     4
  0
VERTEX
  8
PERFIL_CABOS
 62
     256
 10
1.360000e+02
 20
8.666633e+01
 30
0.0
 70
     4
  0
VERTEX
  8
PERFIL_CABOS
 62
     256
 10
1.400000e+02
 20
8.724007e+01
 30
0.0
 70
     4
  0
VERTEX
  8
PERFIL_CABOS
 62
     256
 10
1.440000e+02
 20
8.787423e+01
 30
0.0
 70
     4
  0
VERTEX
  8
PERFIL_CABOS
 62
     256
 10
1.480000e+02
 20
8.856880e+01
 30
0.0
 70
     4
  0
VERTEX
  8
PERFIL_CABOS
 62
     256
 10
1.520000e+02
 20
8.932380e+01
 30
0.0
 70
     4
  0
VERTEX
  8
PERFIL_CABOS
 62
     256
 10
1.560000e+02
 20
9.013923e+01
 30
0.0
 70
     4
  0
VERTEX
  8
PERFIL_CABOS
 62
     256
 10
1.600000e+02
 20
9.101510e+01
 30
0.0
 70
     4
  0
VERTEX
  8
PERFIL_CABOS
 62
     256
 10
1.640000e+02
 20
9.195142e+01
 30
0.0
 70
     4
  0
VERTEX
  8
PERFIL_CABOS
 62
     256
 10
1.680000e+02
 20
9.294819e+01
 30
0.0
 70
     4
  0
VERTEX
  8
PERFIL_CABOS
 62
     256
 10
1.720000e+02
 20
9.400543e+01
 30
0.0
 70
     4
  0
VERTEX
  8
PERFIL_CABOS
 62
     256
 10
1.760000e+02
 20
9.512314e+01
 30
0.0
 70
     4
  0
VERTEX
  8
PERFIL_CABOS
 62
     256
 10
1.800000e+02
 20
9.630134e+01
 30
0.0
 70
     4
  0
VERTEX
  8
PERFIL_CABOS
 62
     256
 10
1.840000e+02
 20
9.754003e+01
 30
0.0
 70
     4
  0
VERTEX
  8
PERFIL_CABOS
 62
     256
 10
1.880000e+02
 20
9.883923e+01
 30
0.0
 70
     4
  0
VERTEX
  8
PERFIL_CABOS
 62
     256
 10
1.920000e+02
 20
1.001990e+02
 30
0.0
 70
     4
  0
VERTEX
  8
PERFIL_CABOS
 62
     256
 10
1.960000e+02
 20
1.016192e+02
 30
0.0
 70
     4
  0
VERTEX
  8
PERFIL_CABOS
 62
     256
 10
2.000000e+02
 20
1.031000e+02
 30
0.0
 70
     4
   0
SEQEND
  8
PERFIL_CABOS
 62
     256
  0
POLYLINE
  8
PERFIL_CURVA_1
 62
     256
 66
     1
 10
0.0
 20
0.0
 30
0.0
  0
VERTEX
  8
PERFIL_CURVA_1
 62
     256
 10
0.000000e+00
 20
8.310000e+01
 30
0.0
 70
     4
  0
VERTEX
  8
PERFIL_CURVA_1
 62
     256
 10
4.000000e+00
 20
8.161920e+01
 30
0.0
 70
     4
  0
VERTEX
  8
PERFIL_CURVA_1
 62
     256
 10
8.000000e+00
 20
8.019895e+01
 30
0.0
 70
     4
  0
VERTEX
  8
PERFIL_CURVA_1
 62
     256
 10
1.200000e+01
 20
7.883923e+01
 30
0.0
 70
     4
  0
VERTEX
  8
PERFIL_CURVA_1
 62
     256
 10
1.600000e+01
 20
7.754003e+01
 30
0.0
 70
     4
  0
VERTEX
  8
PERFIL_CURVA_1
 62
     256
 10
2.000000e+01
 20
7.630134e+01
 30
0.0
 70
     4
  0
VERTEX
  8
PERFIL_CURVA_1
 62
     256
 10
2.400000e+01
 20
7.512314e+01
 30
0.0
 70
     4
  0
VERTEX
  8
PERFIL_CURVA_1
 62
     256
 10
2.800000e+01
 20
7.400543e+01
 30
0.0
 70
     4
  0
VERTEX
  8
PERFIL_CURVA_1
 62
     256
 10
3.200000e+01
 20
7.294819e+01
 30
0.0
 70
     4
  0
VERTEX
  8
PERFIL_CURVA_1
 62
     256
 10
3.600000e+01
 20
7.195142e+01
 30
0.0
 70
     4
  0
VERTEX
  8
PERFIL_CURVA_1
 62
     256
 10
4.000000e+01
 20
7.101510e+01
 30
0.0
 70
     4
  0
VERTEX
  8
PERFIL_CURVA_1
 62
     256
 10
4.400000e+01
 20
7.013923e+01
 30
0.0
 70
     4
  0
VERTEX
  8
PERFIL_CURVA_1
 62
     256
 10
4.800000e+01
 20
6.932380e+01
 30
0.0
 70
     4
  0
VERTEX
  8
PERFIL_CURVA_1
 62
     256
 10
5.200000e+01
 20
6.856880e+01
 30
0.0
 70
     4
  0
VERTEX
  8
PERFIL_CURVA_1
 62
     256
 10
5.600000e+01
 20
6.787423e+01
 30
0.0
 70
     4
  0
VERTEX
  8
PERFIL_CURVA_1
 62
     256
 10
6.000000e+01
 20
6.724007e+01
 30
0.0
 70
     4
  0
VERTEX
  8
PERFIL_CURVA_1
 62
     256
 10
6.400000e+01
 20
6.666633e+01
 30
0.0
 70
     4
  0
VERTEX
  8
PERFIL_CURVA_1
 62
     256
 10
6.800000e+01
 20
6.615300e+01
 30
0.0
 70
     4
  0
VERTEX
  8
PERFIL_CURVA_1
 62
     256
 10
7.200000e+01
 20
6.570007e+01
 30
0.0
 70
     4
  0
VERTEX
  8
PERFIL_CURVA_1
 62
     256
 10
7.600000e+01
 20
6.530754e+01
 30
0.0
 70
     4
  0
VERTEX
  8
PERFIL_CURVA_1
 62
     256
 10
8.000000e+01
 20
6.497540e+01
 30
0.0
 70
     4
  0
VERTEX
  8
PERFIL_CURVA_1
 62
     256
 10
8.400000e+01
 20
6.470366e+01
 30
0.0
 70
     4
  0
VERTEX
  8
PERFIL_CURVA_1
 62
     256
 10
8.800000e+01
 20
6.449230e+01
 30
0.0
 70
     4
  0
VERTEX
  8
PERFIL_CURVA_1
 62
     256
 10
9.200000e+01
 20
6.434134e+01
 30
0.0
 70
     4
  0
VERTEX
  8
PERFIL_CURVA_1
 62
     256
 10
9.600000e+01
 20
6.425076e+01
 30
0.0
 70
     4
  0
VERTEX
  8
PERFIL_CURVA_1
 62
     256
 10
1.000000e+02
 20
6.422057e+01
 30
0.0
 70
     4
  0
VERTEX
  8
PERFIL_CURVA_1
 62
     256
 10
1.040000e+02
 20
6.425076e+01
 30
0.0
 70
     4
  0
VERTEX
  8
PERFIL_CURVA_1
 62
     256
 10
1.080000e+02
 20
6.434134e+01
 30
0.0
 70
     4
  0
VERTEX
  8
PERFIL_CURVA_1
 62
     256
 10
1.120000e+02
 20
6.449230e+01
 30
0.0
 70
     4
  0
VERTEX
  8
PERFIL_CURVA_1
 62
     256
 10
1.160000e+02
 20
6.470366e+01
 30
0.0
 70
     4
  0
VERTEX
  8
PERFIL_CURVA_1
 62
     256
 10
1.200000e+02
 20
6.497540e+01
 30
0.0
 70
     4
  0
VERTEX
  8
PERFIL_CURVA_1
 62
     256
 10
1.240000e+02
 20
6.530754e+01
 30
0.0
 70
     4
  0
VERTEX
  8
PERFIL_CURVA_1
 62
     256
 10
1.280000e+02
 20
6.570007e+01
 30
0.0
 70
     4
  0
VERTEX
  8
PERFIL_CURVA_1
 62
     256
 10
1.320000e+02
 20
6.615300e+01
 30
0.0
 70
     4
  0
VERTEX
  8
PERFIL_CURVA_1
 62
     256
 10
1.360000e+02
 20
6.666633e+01
 30
0.0
 70
     4
  0
VERTEX
  8
PERFIL_CURVA_1
 62
     256
 10
1.400000e+02
 20
6.724007e+01
 30
0.0
 70
     4
  0
VERTEX
  8
PERFIL_CURVA_1
 62
     256
 10
1.440000e+02
 20
6.787423e+01
 30
0.0
 70
     4
  0
VERTEX
  8
PERFIL_CURVA_1
 62
     256
 10
1.480000e+02
 20
6.856880e+01
 30
0.0
 70
     4
  0
VERTEX
  8
PERFIL_CURVA_1
 62
     256
 10
1.520000e+02
 20
6.932380e+01
 30
0.0
 70
     4
  0
VERTEX
  8
PERFIL_CURVA_1
 62
     256
 10
1.560000e+02
 20
7.013923e+01
 30
0.0
 70
     4
  0
VERTEX
  8
PERFIL_CURVA_1
 62
     256
 10
1.600000e+02
 20
7.101510e+01
 30
0.0
 70
     4
  0
VERTEX
  8
PERFIL_CURVA_1
 62
     256
 10
1.640000e+02
 20
7.195142e+01
 30
0.0
 70
     4
  0
VERTEX
  8
PERFIL_CURVA_1
 62
     256
 10
1.680000e+02
 20
7.294819e+01
 30
0.0
 70
     4
  0
VERTEX
  8
PERFIL_CURVA_1
 62
     256
 10
1.720000e+02
 20
7.400543e+01
 30
0.0
 70
     4
  0
VERTEX
  8
PERFIL_CURVA_1
 62
     256
 10
1.760000e+02
 20
7.512314e+01
 30
0.0
 70
     4
  0
VERTEX
  8
PERFIL_CURVA_1
 62
     256
 10
1.800000e+02
 20
7.630134e+01
 30
0.0
 70
     4
  0
VERTEX
  8
PERFIL_CURVA_1
 62
     256
 10
1.840000e+02
 20
7.754003e+01
 30
0.0
 70
     4
  0
VERTEX
  8
PERFIL_CURVA_1
 62
     256
 10
1.880000e+02
 20
7.883923e+01
 30
0.0
 70
     4
  0
VERTEX
  8
PERFIL_CURVA_1
 62
     256
 10
1.920000e+02
 20
8.019895e+01
 30
0.0
 70
     4
  0
VERTEX
  8
PERFIL_CURVA_1
 62
     256
 10
1.960000e+02
 20
8.161920e+01
 30
0.0
 70
     4
  0
VERTEX
  8
PERFIL_CURVA_1
 62
     256
 10
2.000000e+02
 20
8.310000e+01
 30
0.0
 70
     4
   0
SEQEND
  8
PERFIL_CURVA_1
 62
     256
  0
POLYLINE
  8
PERFIL_CURVA_2
 62
     256
 66
     1
 10
0.0
 20
0.0
 30
0.0
  0
VERTEX
  8
PERFIL_CURVA_2
 62
     256
 10
0.000000e+00
 20
6.810000e+01
 30
0.0
 70
     4
  0
VERTEX
  8
PERFIL_CURVA_2
 62
     256
 10
4.000000e+00
 20
6.661920e+01
 30
0.0
 70
     4
  0
VERTEX
  8
PERFIL_CURVA_2
 62
     256
 10
8.000000e+00
 20
6.519895e+01
 30
0.0
 70
     4
  0
VERTEX
  8
PERFIL_CURVA_2
 62
     256
 10
1.200000e+01
 20
6.383923e+01
 30
0.0
 70
     4
  0
VERTEX
  8
PERFIL_CURVA_2
 62
     256
 10
1.600000e+01
 20
6.254003e+01
 30
0.0
 70
     4
  0
VERTEX
  8
PERFIL_CURVA_2
 62
     256
 10
2.000000e+01
 20
6.130134e+01
 30
0.0
 70
     4
  0
VERTEX
  8
PERFIL_CURVA_2
 62
     256
 10
2.400000e+01
 20
6.012314e+01
 30
0.0
 70
     4
  0
VERTEX
  8
PERFIL_CURVA_2
 62
     256
 10
2.800000e+01
 20
5.900543e+01
 30
0.0
 70
     4
  0
VERTEX
  8
PERFIL_CURVA_2
 62
     256
 10
3.200000e+01
 20
5.794819e+01
 30
0.0
 70
     4
  0
VERTEX
  8
PERFIL_CURVA_2
 62
     256
 10
3.600000e+01
 20
5.695142e+01
 30
0.0
 70
     4
  0
VERTEX
  8
PERFIL_CURVA_2
 62
     256
 10
4.000000e+01
 20
5.601510e+01
 30
0.0
 70
     4
  0
VERTEX
  8
PERFIL_CURVA_2
 62
     256
 10
4.400000e+01
 20
5.513923e+01
 30
0.0
 70
     4
  0
VERTEX
  8
PERFIL_CURVA_2
 62
     256
 10
4.800000e+01
 20
5.432380e+01
 30
0.0
 70
     4
  0
VERTEX
  8
PERFIL_CURVA_2
 62
     256
 10
5.200000e+01
 20
5.356880e+01
 30
0.0
 70
     4
  0
VERTEX
  8
PERFIL_CURVA_2
 62
     256
 10
5.600000e+01
 20
5.287423e+01
 30
0.0
 70
     4
  0
VERTEX
  8
PERFIL_CURVA_2
 62
     256
 10
6.000000e+01
 20
5.224007e+01
 30
0.0
 70
     4
  0
VERTEX
  8
PERFIL_CURVA_2
 62
     256
 10
6.400000e+01
 20
5.166633e+01
 30
0.0
 70
     4
  0
VERTEX
  8
PERFIL_CURVA_2
 62
     256
 10
6.800000e+01
 20
5.115300e+01
 30
0.0
 70
     4
  0
VERTEX
  8
PERFIL_CURVA_2
 62
     256
 10
7.200000e+01
 20
5.070007e+01
 30
0.0
 70
     4
  0
VERTEX
  8
PERFIL_CURVA_2
 62
     256
 10
7.600000e+01
 20
5.030754e+01
 30
0.0
 70
     4
  0
VERTEX
  8
PERFIL_CURVA_2
 62
     256
 10
8.000000e+01
 20
4.997540e+01
 30
0.0
 70
     4
  0
VERTEX
  8
PERFIL_CURVA_2
 62
     256
 10
8.400000e+01
 20
4.970366e+01
 30
0.0
 70
     4
  0
VERTEX
  8
PERFIL_CURVA_2
 62
     256
 10
8.800000e+01
 20
4.949230e+01
 30
0.0
 70
     4
  0
VERTEX
  8
PERFIL_CURVA_2
 62
     256
 10
9.200000e+01
 20
4.934134e+01
 30
0.0
 70
     4
  0
VERTEX
  8
PERFIL_CURVA_2
 62
     256
 10
9.600000e+01
 20
4.925076e+01
 30
0.0
 70
     4
  0
VERTEX
  8
PERFIL_CURVA_2
 62
     256
 10
1.000000e+02
 20
4.922057e+01
 30
0.0
 70
     4
  0
VERTEX
  8
PERFIL_CURVA_2
 62
     256
 10
1.040000e+02
 20
4.925076e+01
 30
0.0
 70
     4
  0
VERTEX
  8
PERFIL_CURVA_2
 62
     256
 10
1.080000e+02
 20
4.934134e+01
 30
0.0
 70
     4
  0
VERTEX
  8
PERFIL_CURVA_2
 62
     256
 10
1.120000e+02
 20
4.949230e+01
 30
0.0
 70
     4
  0
VERTEX
  8
PERFIL_CURVA_2
 62
     256
 10
1.160000e+02
 20
4.970366e+01
 30
0.0
 70
     4
  0
VERTEX
  8
PERFIL_CURVA_2
 62
     256
 10
1.200000e+02
 20
4.997540e+01
 30
0.0
 70
     4
  0
VERTEX
  8
PERFIL_CURVA_2
 62
     256
 10
1.240000e+02
 20
5.030754e+01
 30
0.0
 70
     4
  0
VERTEX
  8
PERFIL_CURVA_2
 62
     256
 10
1.280000e+02
 20
5.070007e+01
 30
0.0
 70
     4
  0
VERTEX
  8
PERFIL_CURVA_2
 62
     256
 10
1.320000e+02
 20
5.115300e+01
 30
0.0
 70
     4
  0
VERTEX
  8
PERFIL_CURVA_2
 62
     256
 10
1.360000e+02
 20
5.166633e+01
 30
0.0
 70
     4
  0
VERTEX
  8
PERFIL_CURVA_2
 62
     256
 10
1.400000e+02
 20
5.224007e+01
 30
0.0
 70
     4
  0
VERTEX
  8
PERFIL_CURVA_2
 62
     256
 10
1.440000e+02
 20
5.287423e+01
 30
0.0
 70
     4
  0
VERTEX
  8
PERFIL_CURVA_2
 62
     256
 10
1.480000e+02
 20
5.356880e+01
 30
0.0
 70
     4
  0
VERTEX
  8
PERFIL_CURVA_2
 62
     256
 10
1.520000e+02
 20
5.432380e+01
 30
0.0
 70
     4
  0
VERTEX
  8
PERFIL_CURVA_2
 62
     256
 10
1.560000e+02
 20
5.513923e+01
 30
0.0
 70
     4
  0
VERTEX
  8
PERFIL_CURVA_2
 62
     256
 10
1.600000e+02
 20
5.601510e+01
 30
0.0
 70
     4
  0
VERTEX
  8
PERFIL_CURVA_2
 62
     256
 10
1.640000e+02
 20
5.695142e+01
 30
0.0
 70
     4
  0
VERTEX
  8
PERFIL_CURVA_2
 62
     256
 10
1.680000e+02
 20
5.794819e+01
 30
0.0
 70
     4
  0
VERTEX
  8
PERFIL_CURVA_2
 62
     256
 10
1.720000e+02
 20
5.900543e+01
 30
0.0
 70
     4
  0
VERTEX
  8
PERFIL_CURVA_2
 62
     256
 10
1.760000e+02
 20
6.012314e+01
 30
0.0
 70
     4
  0
VERTEX
  8
PERFIL_CURVA_2
 62
     256
 10
1.800000e+02
 20
6.130134e+01
 30
0.0
 70
     4
  0
VERTEX
  8
PERFIL_CURVA_2
 62
     256
 10
1.840000e+02
 20
6.254003e+01
 30
0.0
 70
     4
  0
VERTEX
  8
PERFIL_CURVA_2
 62
     256
 10
1.880000e+02
 20
6.383923e+01
 30
0.0
 70
     4
  0
VERTEX
  8
PERFIL_CURVA_2
 62
     256
 10
1.920000e+02
 20
6.519895e+01
 30
0.0
 70
     4
  0
VERTEX
  8
PERFIL_CURVA_2
 62
     256
 10
1.960000e+02
 20
6.661920e+01
 30
0.0
 70
     4
  0
VERTEX
  8
PERFIL_CURVA_2
 62
     256
 10
2.000000e+02
 20
6.810000e+01
 30
0.0
 70
     4
   0
SEQEND
  8
PERFIL_CURVA_2
 62
     256
  0
TEXT
  8
PERFIL_CABOS
 72
     0
 73
 2
 62
     256
 10
2.000000e+02
 20
1.731500e+02
 30
0.000000e+00
 11
2.000000e+02
 21
1.731500e+02
 31
0.000000e+00
 40
4.500000e+00
 50
0.000000e+00
  1
(Pcd=1388 m)
  0
POLYLINE
  8
PERFIL_CABOS
 62
     256
 66
     1
 10
0.0
 20
0.0
 30
0.0
  0
VERTEX
  8
PERFIL_CABOS
 62
     256
 10
2.000000e+02
 20
1.156000e+02
 30
0.0
 70
     4
  0
VERTEX
  8
PERFIL_CABOS
 62
     256
 10
2.030000e+02
 20
1.147253e+02
 30
0.0
 70
     4
  0
VERTEX
  8
PERFIL_CABOS
 62
     256
 10
2.060000e+02
 20
1.138830e+02
 30
0.0
 70
     4
  0
VERTEX
  8
PERFIL_CABOS
 62
     256
 10
2.090000e+02
 20
1.130733e+02
 30
0.0
 70
     4
  0
VERTEX
  8
PERFIL_CABOS
 62
     256
 10
2.120000e+02
 20
1.122960e+02
 30
0.0
 70
     4
  0
VERTEX
  8
PERFIL_CABOS
 62
     256
 10
2.150000e+02
 20
1.115511e+02
 30
0.0
 70
     4
  0
VERTEX
  8
PERFIL_CABOS
 62
     256
 10
2.180000e+02
 20
1.108387e+02
 30
0.0
 70
     4
  0
VERTEX
  8
PERFIL_CABOS
 62
     256
 10
2.210000e+02
 20
1.101588e+02
 30
0.0
 70
     4
  0
VERTEX
  8
PERFIL_CABOS
 62
     256
 10
2.240000e+02
 20
1.095113e+02
 30
0.0
 70
     4
  0
VERTEX
  8
PERFIL_CABOS
 62
     256
 10
2.270000e+02
 20
1.088963e+02
 30
0.0
 70
     4
  0
VERTEX
  8
PERFIL_CABOS
 62
     256
 10
2.300000e+02
 20
1.083137e+02
 30
0.0
 70
     4
  0
VERTEX
  8
PERFIL_CABOS
 62
     256
 10
2.330000e+02
 20
1.077635e+02
 30
0.0
 70
     4
  0
VERTEX
  8
PERFIL_CABOS
 62
     256
 10
2.360000e+02
 20
1.072458e+02
 30
0.0
 70
     4
  0
VERTEX
  8
PERFIL_CABOS
 62
     256
 10
2.390000e+02
 20
1.067605e+02
 30
0.0
 70
     4
  0
VERTEX
  8
PERFIL_CABOS
 62
     256
 10
2.420000e+02
 20
1.063077e+02
 30
0.0
 70
     4
  0
VERTEX
  8
PERFIL_CABOS
 62
     256
 10
2.450000e+02
 20
1.058873e+02
 30
0.0
 70
     4
  0
VERTEX
  8
PERFIL_CABOS
 62
     256
 10
2.480000e+02
 20
1.054993e+02
 30
0.0
 70
     4
  0
VERTEX
  8
PERFIL_CABOS
 62
     256
 10
2.510000e+02
 20
1.051437e+02
 30
0.0
 70
     4
  0
VERTEX
  8
PERFIL_CABOS
 62
     256
 10
2.540000e+02
 20
1.048206e+02
 30
0.0
 70
     4
  0
VERTEX
  8
PERFIL_CABOS
 62
     256
 10
2.570000e+02
 20
1.045299e+02
 30
0.0
 70
     4
  0
VERTEX
  8
PERFIL_CABOS
 62
     256
 10
2.600000e+02
 20
1.042716e+02
 30
0.0
 70
     4
  0
VERTEX
  8
PERFIL_CABOS
 62
     256
 10
2.630000e+02
 20
1.040458e+02
 30
0.0
 70
     4
  0
VERTEX
  8
PERFIL_CABOS
 62
     256
 10
2.660000e+02
 20
1.038523e+02
 30
0.0
 70
     4
  0
VERTEX
  8
PERFIL_CABOS
 62
     256
 10
2.690000e+02
 20
1.036913e+02
 30
0.0
 70
     4
  0
VERTEX
  8
PERFIL_CABOS
 62
     256
 10
2.720000e+02
 20
1.035627e+02
 30
0.0
 70
     4
  0
VERTEX
  8
PERFIL_CABOS
 62
     256
 10
2.750000e+02
 20
1.034666e+02
 30
0.0
 70
     4
  0
VERTEX
  8
PERFIL_CABOS
 62
     256
 10
2.780000e+02
 20
1.034028e+02
 30
0.0
 70
     4
  0
VERTEX
  8
PERFIL_CABOS
 62
     256
 10
2.810000e+02
 20
1.033715e+02
 30
0.0
 70
     4
  0
VERTEX
  8
PERFIL_CABOS
 62
     256
 10
2.840000e+02
 20
1.033726e+02
 30
0.0
 70
     4
  0
VERTEX
  8
PERFIL_CABOS
 62
     256
 10
2.870000e+02
 20
1.034061e+02
 30
0.0
 70
     4
  0
VERTEX
  8
PERFIL_CABOS
 62
     256
 10
2.900000e+02
 20
1.034720e+02
 30
0.0
 70
     4
  0
VERTEX
  8
PERFIL_CABOS
 62
     256
 10
2.930000e+02
 20
1.035703e+02
 30
0.0
 70
     4
  0
VERTEX
  8
PERFIL_CABOS
 62
     256
 10
2.960000e+02
 20
1.037011e+02
 30
0.0
 70
     4
  0
VERTEX
  8
PERFIL_CABOS
 62
     256
 10
2.990000e+02
 20
1.038643e+02
 30
0.0
 70
     4
  0
VERTEX
  8
PERFIL_CABOS
 62
     256
 10
3.020000e+02
 20
1.040599e+02
 30
0.0
 70
     4
  0
VERTEX
  8
PERFIL_CABOS
 62
     256
 10
3.050000e+02
 20
1.042879e+02
 30
0.0
 70
     4
  0
VERTEX
  8
PERFIL_CABOS
 62
     256
 10
3.080000e+02
 20
1.045484e+02
 30
0.0
 70
     4
  0
VERTEX
  8
PERFIL_CABOS
 62
     256
 10
3.110000e+02
 20
1.048412e+02
 30
0.0
 70
     4
  0
VERTEX
  8
PERFIL_CABOS
 62
     256
 10
3.140000e+02
 20
1.051665e+02
 30
0.0
 70
     4
  0
VERTEX
  8
PERFIL_CABOS
 62
     256
 10
3.170000e+02
 20
1.055243e+02
 30
0.0
 70
     4
  0
VERTEX
  8
PERFIL_CABOS
 62
     256
 10
3.200000e+02
 20
1.059144e+02
 30
0.0
 70
     4
  0
VERTEX
  8
PERFIL_CABOS
 62
     256
 10
3.230000e+02
 20
1.063370e+02
 30
0.0
 70
     4
  0
VERTEX
  8
PERFIL_CABOS
 62
     256
 10
3.260000e+02
 20
1.067920e+02
 30
0.0
 70
     4
  0
VERTEX
  8
PERFIL_CABOS
 62
     256
 10
3.290000e+02
 20
1.072795e+02
 30
0.0
 70
     4
  0
VERTEX
  8
PERFIL_CABOS
 62
     256
 10
3.320000e+02
 20
1.077994e+02
 30
0.0
 70
     4
  0
VERTEX
  8
PERFIL_CABOS
 62
     256
 10
3.350000e+02
 20
1.083517e+02
 30
0.0
 70
     4
  0
VERTEX
  8
PERFIL_CABOS
 62
     256
 10
3.380000e+02
 20
1.089364e+02
 30
0.0
 70
     4
  0
VERTEX
  8
PERFIL_CABOS
 62
     256
 10
3.410000e+02
 20
1.095537e+02
 30
0.0
 70
     4
  0
VERTEX
  8
PERFIL_CABOS
 62
     256
 10
3.440000e+02
 20
1.102033e+02
 30
0.0
 70
     4
  0
VERTEX
  8
PERFIL_CABOS
 62
     256
 10
3.470000e+02
 20
1.108854e+02
 30
0.0
 70
     4
  0
VERTEX
  8
PERFIL_CABOS
 62
     256
 10
3.500000e+02
 20
1.116000e+02
 30
0.0
 70
     4
   0
SEQEND
  8
PERFIL_CABOS
 62
     256
  0
POLYLINE
  8
PERFIL_CABOS
 62
     256
 66
     1
 10
0.0
 20
0.0
 30
0.0
  0
VERTEX
  8
PERFIL_CABOS
 62
     256
 10
2.000000e+02
 20
1.093500e+02
 30
0.0
 70
     4
  0
VERTEX
  8
PERFIL_CABOS
 62
     256
 10
2.030000e+02
 20
1.084753e+02
 30
0.0
 70
     4
  0
VERTEX
  8
PERFIL_CABOS
 62
     256
 10
2.060000e+02
 20
1.076330e+02
 30
0.0
 70
     4
  0
VERTEX
  8
PERFIL_CABOS
 62
     256
 10
2.090000e+02
 20
1.068233e+02
 30
0.0
 70
     4
  0
VERTEX
  8
PERFIL_CABOS
 62
     256
 10
2.120000e+02
 20
1.060460e+02
 30
0.0
 70
     4
  0
VERTEX
  8
PERFIL_CABOS
 62
     256
 10
2.150000e+02
 20
1.053011e+02
 30
0.0
 70
     4
  0
VERTEX
  8
PERFIL_CABOS
 62
     256
 10
2.180000e+02
 20
1.045887e+02
 30
0.0
 70
     4
  0
VERTEX
  8
PERFIL_CABOS
 62
     256
 10
2.210000e+02
 20
1.039088e+02
 30
0.0
 70
     4
  0
VERTEX
  8
PERFIL_CABOS
 62
     256
 10
2.240000e+02
 20
1.032613e+02
 30
0.0
 70
     4
  0
VERTEX
  8
PERFIL_CABOS
 62
     256
 10
2.270000e+02
 20
1.026463e+02
 30
0.0
 70
     4
  0
VERTEX
  8
PERFIL_CABOS
 62
     256
 10
2.300000e+02
 20
1.020637e+02
 30
0.0
 70
     4
  0
VERTEX
  8
PERFIL_CABOS
 62
     256
 10
2.330000e+02
 20
1.015135e+02
 30
0.0
 70
     4
  0
VERTEX
  8
PERFIL_CABOS
 62
     256
 10
2.360000e+02
 20
1.009958e+02
 30
0.0
 70
     4
  0
VERTEX
  8
PERFIL_CABOS
 62
     256
 10
2.390000e+02
 20
1.005105e+02
 30
0.0
 70
     4
  0
VERTEX
  8
PERFIL_CABOS
 62
     256
 10
2.420000e+02
 20
1.000577e+02
 30
0.0
 70
     4
  0
VERTEX
  8
PERFIL_CABOS
 62
     256
 10
2.450000e+02
 20
9.963726e+01
 30
0.0
 70
     4
  0
VERTEX
  8
PERFIL_CABOS
 62
     256
 10
2.480000e+02
 20
9.924928e+01
 30
0.0
 70
     4
  0
VERTEX
  8
PERFIL_CABOS
 62
     256
 10
2.510000e+02
 20
9.889373e+01
 30
0.0
 70
     4
  0
VERTEX
  8
PERFIL_CABOS
 62
     256
 10
2.540000e+02
 20
9.857061e+01
 30
0.0
 70
     4
  0
VERTEX
  8
PERFIL_CABOS
 62
     256
 10
2.570000e+02
 20
9.827991e+01
 30
0.0
 70
     4
  0
VERTEX
  8
PERFIL_CABOS
 62
     256
 10
2.600000e+02
 20
9.802163e+01
 30
0.0
 70
     4
  0
VERTEX
  8
PERFIL_CABOS
 62
     256
 10
2.630000e+02
 20
9.779578e+01
 30
0.0
 70
     4
  0
VERTEX
  8
PERFIL_CABOS
 62
     256
 10
2.660000e+02
 20
9.760235e+01
 30
0.0
 70
     4
  0
VERTEX
  8
PERFIL_CABOS
 62
     256
 10
2.690000e+02
 20
9.744134e+01
 30
0.0
 70
     4
  0
VERTEX
  8
PERFIL_CABOS
 62
     256
 10
2.720000e+02
 20
9.731275e+01
 30
0.0
 70
     4
  0
VERTEX
  8
PERFIL_CABOS
 62
     256
 10
2.750000e+02
 20
9.721657e+01
 30
0.0
 70
     4
  0
VERTEX
  8
PERFIL_CABOS
 62
     256
 10
2.780000e+02
 20
9.715282e+01
 30
0.0
 70
     4
  0
VERTEX
  8
PERFIL_CABOS
 62
     256
 10
2.810000e+02
 20
9.712149e+01
 30
0.0
 70
     4
  0
VERTEX
  8
PERFIL_CABOS
 62
     256
 10
2.840000e+02
 20
9.712258e+01
 30
0.0
 70
     4
  0
VERTEX
  8
PERFIL_CABOS
 62
     256
 10
2.870000e+02
 20
9.715608e+01
 30
0.0
 70
     4
  0
VERTEX
  8
PERFIL_CABOS
 62
     256
 10
2.900000e+02
 20
9.722200e+01
 30
0.0
 70
     4
  0
VERTEX
  8
PERFIL_CABOS
 62
     256
 10
2.930000e+02
 20
9.732035e+01
 30
0.0
 70
     4
  0
VERTEX
  8
PERFIL_CABOS
 62
     256
 10
2.960000e+02
 20
9.745111e+01
 30
0.0
 70
     4
  0
VERTEX
  8
PERFIL_CABOS
 62
     256
 10
2.990000e+02
 20
9.761429e+01
 30
0.0
 70
     4
  0
VERTEX
  8
PERFIL_CABOS
 62
     256
 10
3.020000e+02
 20
9.780989e+01
 30
0.0
 70
     4
  0
VERTEX
  8
PERFIL_CABOS
 62
     256
 10
3.050000e+02
 20
9.803792e+01
 30
0.0
 70
     4
  0
VERTEX
  8
PERFIL_CABOS
 62
     256
 10
3.080000e+02
 20
9.829837e+01
 30
0.0
 70
     4
  0
VERTEX
  8
PERFIL_CABOS
 62
     256
 10
3.110000e+02
 20
9.859124e+01
 30
0.0
 70
     4
  0
VERTEX
  8
PERFIL_CABOS
 62
     256
 10
3.140000e+02
 20
9.891654e+01
 30
0.0
 70
     4
  0
VERTEX
  8
PERFIL_CABOS
 62
     256
 10
3.170000e+02
 20
9.927426e+01
 30
0.0
 70
     4
  0
VERTEX
  8
PERFIL_CABOS
 62
     256
 10
3.200000e+02
 20
9.966441e+01
 30
0.0
 70
     4
  0
VERTEX
  8
PERFIL_CABOS
 62
     256
 10
3.230000e+02
 20
1.000870e+02
 30
0.0
 70
     4
  0
VERTEX
  8
PERFIL_CABOS
 62
     256
 10
3.260000e+02
 20
1.005420e+02
 30
0.0
 70
     4
  0
VERTEX
  8
PERFIL_CABOS
 62
     256
 10
3.290000e+02
 20
1.010295e+02
 30
0.0
 70
     4
  0
VERTEX
  8
PERFIL_CABOS
 62
     256
 10
3.320000e+02
 20
1.015494e+02
 30
0.0
 70
     4
  0
VERTEX
  8
PERFIL_CABOS
 62
     256
 10
3.350000e+02
 20
1.021017e+02
 30
0.0
 70
     4
  0
VERTEX
  8
PERFIL_CABOS
 62
     256
 10
3.380000e+02
 20
1.026864e+02
 30
0.0
 70
     4
  0
VERTEX
  8
PERFIL_CABOS
 62
     256
 10
3.410000e+02
 20
1.033037e+02
 30
0.0
 70
     4
  0
VERTEX
  8
PERFIL_CABOS
 62
     256
 10
3.440000e+02
 20
1.039533e+02
 30
0.0
 70
     4
  0
VERTEX
  8
PERFIL_CABOS
 62
     256
 10
3.470000e+02
 20
1.046354e+02
 30
0.0
 70
     4
  0
VERTEX
  8
PERFIL_CABOS
 62
     256
 10
3.500000e+02
 20
1.053500e+02
 30
0.0
 70
     4
   0
SEQEND
  8
PERFIL_CABOS
 62
     256
  0
POLYLINE
  8
PERFIL_CABOS
 62
     256
 66
     1
 10
0.0
 20
0.0
 30
0.0
  0
VERTEX
  8
PERFIL_CABOS
 62
     256
 10
2.000000e+02
 20
1.031000e+02
 30
0.0
 70
     4
  0
VERTEX
  8
PERFIL_CABOS
 62
     256
 10
2.030000e+02
 20
1.022253e+02
 30
0.0
 70
     4
  0
VERTEX
  8
PERFIL_CABOS
 62
     256
 10
2.060000e+02
 20
1.013830e+02
 30
0.0
 70
     4
  0
VERTEX
  8
PERFIL_CABOS
 62
     256
 10
2.090000e+02
 20
1.005733e+02
 30
0.0
 70
     4
  0
VERTEX
  8
PERFIL_CABOS
 62
     256
 10
2.120000e+02
 20
9.979597e+01
 30
0.0
 70
     4
  0
VERTEX
  8
PERFIL_CABOS
 62
     256
 10
2.150000e+02
 20
9.905112e+01
 30
0.0
 70
     4
  0
VERTEX
  8
PERFIL_CABOS
 62
     256
 10
2.180000e+02
 20
9.833873e+01
 30
0.0
 70
     4
  0
VERTEX
  8
PERFIL_CABOS
 62
     256
 10
2.210000e+02
 20
9.765879e+01
 30
0.0
 70
     4
  0
VERTEX
  8
PERFIL_CABOS
 62
     256
 10
2.240000e+02
 20
9.701130e+01
 30
0.0
 70
     4
  0
VERTEX
  8
PERFIL_CABOS
 62
     256
 10
2.270000e+02
 20
9.639626e+01
 30
0.0
 70
     4
  0
VERTEX
  8
PERFIL_CABOS
 62
     256
 10
2.300000e+02
 20
9.581367e+01
 30
0.0
 70
     4
  0
VERTEX
  8
PERFIL_CABOS
 62
     256
 10
2.330000e+02
 20
9.526351e+01
 30
0.0
 70
     4
  0
VERTEX
  8
PERFIL_CABOS
 62
     256
 10
2.360000e+02
 20
9.474580e+01
 30
0.0
 70
     4
  0
VERTEX
  8
PERFIL_CABOS
 62
     256
 10
2.390000e+02
 20
9.426052e+01
 30
0.0
 70
     4
  0
VERTEX
  8
PERFIL_CABOS
 62
     256
 10
2.420000e+02
 20
9.380768e+01
 30
0.0
 70
     4
  0
VERTEX
  8
PERFIL_CABOS
 62
     256
 10
2.450000e+02
 20
9.338726e+01
 30
0.0
 70
     4
  0
VERTEX
  8
PERFIL_CABOS
 62
     256
 10
2.480000e+02
 20
9.299928e+01
 30
0.0
 70
     4
  0
VERTEX
  8
PERFIL_CABOS
 62
     256
 10
2.510000e+02
 20
9.264373e+01
 30
0.0
 70
     4
  0
VERTEX
  8
PERFIL_CABOS
 62
     256
 10
2.540000e+02
 20
9.232061e+01
 30
0.0
 70
     4
  0
VERTEX
  8
PERFIL_CABOS
 62
     256
 10
2.570000e+02
 20
9.202991e+01
 30
0.0
 70
     4
  0
VERTEX
  8
PERFIL_CABOS
 62
     256
 10
2.600000e+02
 20
9.177163e+01
 30
0.0
 70
     4
  0
VERTEX
  8
PERFIL_CABOS
 62
     256
 10
2.630000e+02
 20
9.154578e+01
 30
0.0
 70
     4
  0
VERTEX
  8
PERFIL_CABOS
 62
     256
 10
2.660000e+02
 20
9.135235e+01
 30
0.0
 70
     4
  0
VERTEX
  8
PERFIL_CABOS
 62
     256
 10
2.690000e+02
 20
9.119134e+01
 30
0.0
 70
     4
  0
VERTEX
  8
PERFIL_CABOS
 62
     256
 10
2.720000e+02
 20
9.106275e+01
 30
0.0
 70
     4
  0
VERTEX
  8
PERFIL_CABOS
 62
     256
 10
2.750000e+02
 20
9.096657e+01
 30
0.0
 70
     4
  0
VERTEX
  8
PERFIL_CABOS
 62
     256
 10
2.780000e+02
 20
9.090282e+01
 30
0.0
 70
     4
  0
VERTEX
  8
PERFIL_CABOS
 62
     256
 10
2.810000e+02
 20
9.087149e+01
 30
0.0
 70
     4
  0
VERTEX
  8
PERFIL_CABOS
 62
     256
 10
2.840000e+02
 20
9.087258e+01
 30
0.0
 70
     4
  0
VERTEX
  8
PERFIL_CABOS
 62
     256
 10
2.870000e+02
 20
9.090608e+01
 30
0.0
 70
     4
  0
VERTEX
  8
PERFIL_CABOS
 62
     256
 10
2.900000e+02
 20
9.097200e+01
 30
0.0
 70
     4
  0
VERTEX
  8
PERFIL_CABOS
 62
     256
 10
2.930000e+02
 20
9.107035e+01
 30
0.0
 70
     4
  0
VERTEX
  8
PERFIL_CABOS
 62
     256
 10
2.960000e+02
 20
9.120111e+01
 30
0.0
 70
     4
  0
VERTEX
  8
PERFIL_CABOS
 62
     256
 10
2.990000e+02
 20
9.136429e+01
 30
0.0
 70
     4
  0
VERTEX
  8
PERFIL_CABOS
 62
     256
 10
3.020000e+02
 20
9.155989e+01
 30
0.0
 70
     4
  0
VERTEX
  8
PERFIL_CABOS
 62
     256
 10
3.050000e+02
 20
9.178792e+01
 30
0.0
 70
     4
  0
VERTEX
  8
PERFIL_CABOS
 62
     256
 10
3.080000e+02
 20
9.204837e+01
 30
0.0
 70
     4
  0
VERTEX
  8
PERFIL_CABOS
 62
     256
 10
3.110000e+02
 20
9.234124e+01
 30
0.0
 70
     4
  0
VERTEX
  8
PERFIL_CABOS
 62
     256
 10
3.140000e+02
 20
9.266654e+01
 30
0.0
 70
     4
  0
VERTEX
  8
PERFIL_CABOS
 62
     256
 10
3.170000e+02
 20
9.302426e+01
 30
0.0
 70
     4
  0
VERTEX
  8
PERFIL_CABOS
 62
     256
 10
3.200000e+02
 20
9.341441e+01
 30
0.0
 70
     4
  0
VERTEX
  8
PERFIL_CABOS
 62
     256
 10
3.230000e+02
 20
9.383700e+01
 30
0.0
 70
     4
  0
VERTEX
  8
PERFIL_CABOS
 62
     256
 10
3.260000e+02
 20
9.429201e+01
 30
0.0
 70
     4
  0
VERTEX
  8
PERFIL_CABOS
 62
     256
 10
3.290000e+02
 20
9.477946e+01
 30
0.0
 70
     4
  0
VERTEX
  8
PERFIL_CABOS
 62
     256
 10
3.320000e+02
 20
9.529935e+01
 30
0.0
 70
     4
  0
VERTEX
  8
PERFIL_CABOS
 62
     256
 10
3.350000e+02
 20
9.585168e+01
 30
0.0
 70
     4
  0
VERTEX
  8
PERFIL_CABOS
 62
     256
 10
3.380000e+02
 20
9.643645e+01
 30
0.0
 70
     4
  0
VERTEX
  8
PERFIL_CABOS
 62
     256
 10
3.410000e+02
 20
9.705366e+01
 30
0.0
 70
     4
  0
VERTEX
  8
PERFIL_CABOS
 62
     256
 10
3.440000e+02
 20
9.770332e+01
 30
0.0
 70
     4
  0
VERTEX
  8
PERFIL_CABOS
 62
     256
 10
3.470000e+02
 20
9.838543e+01
 30
0.0
 70
     4
  0
VERTEX
  8
PERFIL_CABOS
 62
     256
 10
3.500000e+02
 20
9.910000e+01
 30
0.0
 70
     4
   0
SEQEND
  8
PERFIL_CABOS
 62
     256
  0
POLYLINE
  8
PERFIL_CURVA_1
 62
     256
 66
     1
 10
0.0
 20
0.0
 30
0.0
  0
VERTEX
  8
PERFIL_CURVA_1
 62
     256
 10
2.000000e+02
 20
8.310000e+01
 30
0.0
 70
     4
  0
VERTEX
  8
PERFIL_CURVA_1
 62
     256
 10
2.030000e+02
 20
8.222529e+01
 30
0.0
 70
     4
  0
VERTEX
  8
PERFIL_CURVA_1
 62
     256
 10
2.060000e+02
 20
8.138305e+01
 30
0.0
 70
     4
  0
VERTEX
  8
PERFIL_CURVA_1
 62
     256
 10
2.090000e+02
 20
8.057328e+01
 30
0.0
 70
     4
  0
VERTEX
  8
PERFIL_CURVA_1
 62
     256
 10
2.120000e+02
 20
7.979597e+01
 30
0.0
 70
     4
  0
VERTEX
  8
PERFIL_CURVA_1
 62
     256
 10
2.150000e+02
 20
7.905112e+01
 30
0.0
 70
     4
  0
VERTEX
  8
PERFIL_CURVA_1
 62
     256
 10
2.180000e+02
 20
7.833873e+01
 30
0.0
 70
     4
  0
VERTEX
  8
PERFIL_CURVA_1
 62
     256
 10
2.210000e+02
 20
7.765879e+01
 30
0.0
 70
     4
  0
VERTEX
  8
PERFIL_CURVA_1
 62
     256
 10
2.240000e+02
 20
7.701130e+01
 30
0.0
 70
     4
  0
VERTEX
  8
PERFIL_CURVA_1
 62
     256
 10
2.270000e+02
 20
7.639626e+01
 30
0.0
 70
     4
  0
VERTEX
  8
PERFIL_CURVA_1
 62
     256
 10
2.300000e+02
 20
7.581367e+01
 30
0.0
 70
     4
  0
VERTEX
  8
PERFIL_CURVA_1
 62
     256
 10
2.330000e+02
 20
7.526351e+01
 30
0.0
 70
     4
  0
VERTEX
  8
PERFIL_CURVA_1
 62
     256
 10
2.360000e+02
 20
7.474580e+01
 30
0.0
 70
     4
  0
VERTEX
  8
PERFIL_CURVA_1
 62
     256
 10
2.390000e+02
 20
7.426052e+01
 30
0.0
 70
     4
  0
VERTEX
  8
PERFIL_CURVA_1
 62
     256
 10
2.420000e+02
 20
7.380768e+01
 30
0.0
 70
     4
  0
VERTEX
  8
PERFIL_CURVA_1
 62
     256
 10
2.450000e+02
 20
7.338726e+01
 30
0.0
 70
     4
  0
VERTEX
  8
PERFIL_CURVA_1
 62
     256
 10
2.480000e+02
 20
7.299928e+01
 30
0.0
 70
     4
  0
VERTEX
  8
PERFIL_CURVA_1
 62
     256
 10
2.510000e+02
 20
7.264373e+01
 30
0.0
 70
     4
  0
VERTEX
  8
PERFIL_CURVA_1
 62
     256
 10
2.540000e+02
 20
7.232061e+01
 30
0.0
 70
     4
  0
VERTEX
  8
PERFIL_CURVA_1
 62
     256
 10
2.570000e+02
 20
7.202991e+01
 30
0.0
 70
     4
  0
VERTEX
  8
PERFIL_CURVA_1
 62
     256
 10
2.600000e+02
 20
7.177163e+01
 30
0.0
 70
     4
  0
VERTEX
  8
PERFIL_CURVA_1
 62
     256
 10
2.630000e+02
 20
7.154578e+01
 30
0.0
 70
     4
  0
VERTEX
  8
PERFIL_CURVA_1
 62
     256
 10
2.660000e+02
 20
7.135235e+01
 30
0.0
 70
     4
  0
VERTEX
  8
PERFIL_CURVA_1
 62
     256
 10
2.690000e+02
 20
7.119134e+01
 30
0.0
 70
     4
  0
VERTEX
  8
PERFIL_CURVA_1
 62
     256
 10
2.720000e+02
 20
7.106275e+01
 30
0.0
 70
     4
  0
VERTEX
  8
PERFIL_CURVA_1
 62
     256
 10
2.750000e+02
 20
7.096657e+01
 30
0.0
 70
     4
  0
VERTEX
  8
PERFIL_CURVA_1
 62
     256
 10
2.780000e+02
 20
7.090282e+01
 30
0.0
 70
     4
  0
VERTEX
  8
PERFIL_CURVA_1
 62
     256
 10
2.810000e+02
 20
7.087149e+01
 30
0.0
 70
     4
  0
VERTEX
  8
PERFIL_CURVA_1
 62
     256
 10
2.840000e+02
 20
7.087258e+01
 30
0.0
 70
     4
  0
VERTEX
  8
PERFIL_CURVA_1
 62
     256
 10
2.870000e+02
 20
7.090608e+01
 30
0.0
 70
     4
  0
VERTEX
  8
PERFIL_CURVA_1
 62
     256
 10
2.900000e+02
 20
7.097200e+01
 30
0.0
 70
     4
  0
VERTEX
  8
PERFIL_CURVA_1
 62
     256
 10
2.930000e+02
 20
7.107035e+01
 30
0.0
 70
     4
  0
VERTEX
  8
PERFIL_CURVA_1
 62
     256
 10
2.960000e+02
 20
7.120111e+01
 30
0.0
 70
     4
  0
VERTEX
  8
PERFIL_CURVA_1
 62
     256
 10
2.990000e+02
 20
7.136429e+01
 30
0.0
 70
     4
  0
VERTEX
  8
PERFIL_CURVA_1
 62
     256
 10
3.020000e+02
 20
7.155989e+01
 30
0.0
 70
     4
  0
VERTEX
  8
PERFIL_CURVA_1
 62
     256
 10
3.050000e+02
 20
7.178792e+01
 30
0.0
 70
     4
  0
VERTEX
  8
PERFIL_CURVA_1
 62
     256
 10
3.080000e+02
 20
7.204837e+01
 30
0.0
 70
     4
  0
VERTEX
  8
PERFIL_CURVA_1
 62
     256
 10
3.110000e+02
 20
7.234124e+01
 30
0.0
 70
     4
  0
VERTEX
  8
PERFIL_CURVA_1
 62
     256
 10
3.140000e+02
 20
7.266654e+01
 30
0.0
 70
     4
  0
VERTEX
  8
PERFIL_CURVA_1
 62
     256
 10
3.170000e+02
 20
7.302426e+01
 30
0.0
 70
     4
  0
VERTEX
  8
PERFIL_CURVA_1
 62
     256
 10
3.200000e+02
 20
7.341441e+01
 30
0.0
 70
     4
  0
VERTEX
  8
PERFIL_CURVA_1
 62
     256
 10
3.230000e+02
 20
7.383700e+01
 30
0.0
 70
     4
  0
VERTEX
  8
PERFIL_CURVA_1
 62
     256
 10
3.260000e+02
 20
7.429201e+01
 30
0.0
 70
     4
  0
VERTEX
  8
PERFIL_CURVA_1
 62
     256
 10
3.290000e+02
 20
7.477946e+01
 30
0.0
 70
     4
  0
VERTEX
  8
PERFIL_CURVA_1
 62
     256
 10
3.320000e+02
 20
7.529935e+01
 30
0.0
 70
     4
  0
VERTEX
  8
PERFIL_CURVA_1
 62
     256
 10
3.350000e+02
 20
7.585168e+01
 30
0.0
 70
     4
  0
VERTEX
  8
PERFIL_CURVA_1
 62
     256
 10
3.380000e+02
 20
7.643645e+01
 30
0.0
 70
     4
  0
VERTEX
  8
PERFIL_CURVA_1
 62
     256
 10
3.410000e+02
 20
7.705366e+01
 30
0.0
 70
     4
  0
VERTEX
  8
PERFIL_CURVA_1
 62
     256
 10
3.440000e+02
 20
7.770332e+01
 30
0.0
 70
     4
  0
VERTEX
  8
PERFIL_CURVA_1
 62
     256
 10
3.470000e+02
 20
7.838543e+01
 30
0.0
 70
     4
  0
VERTEX
  8
PERFIL_CURVA_1
 62
     256
 10
3.500000e+02
 20
7.910000e+01
 30
0.0
 70
     4
   0
SEQEND
  8
PERFIL_CURVA_1
 62
     256
  0
POLYLINE
  8
PERFIL_CURVA_2
 62
     256
 66
     1
 10
0.0
 20
0.0
 30
0.0
  0
VERTEX
  8
PERFIL_CURVA_2
 62
     256
 10
2.000000e+02
 20
6.810000e+01
 30
0.0
 70
     4
  0
VERTEX
  8
PERFIL_CURVA_2
 62
     256
 10
2.030000e+02
 20
6.722529e+01
 30
0.0
 70
     4
  0
VERTEX
  8
PERFIL_CURVA_2
 62
     256
 10
2.060000e+02
 20
6.638305e+01
 30
0.0
 70
     4
  0
VERTEX
  8
PERFIL_CURVA_2
 62
     256
 10
2.090000e+02
 20
6.557328e+01
 30
0.0
 70
     4
  0
VERTEX
  8
PERFIL_CURVA_2
 62
     256
 10
2.120000e+02
 20
6.479597e+01
 30
0.0
 70
     4
  0
VERTEX
  8
PERFIL_CURVA_2
 62
     256
 10
2.150000e+02
 20
6.405112e+01
 30
0.0
 70
     4
  0
VERTEX
  8
PERFIL_CURVA_2
 62
     256
 10
2.180000e+02
 20
6.333873e+01
 30
0.0
 70
     4
  0
VERTEX
  8
PERFIL_CURVA_2
 62
     256
 10
2.210000e+02
 20
6.265879e+01
 30
0.0
 70
     4
  0
VERTEX
  8
PERFIL_CURVA_2
 62
     256
 10
2.240000e+02
 20
6.201130e+01
 30
0.0
 70
     4
  0
VERTEX
  8
PERFIL_CURVA_2
 62
     256
 10
2.270000e+02
 20
6.139626e+01
 30
0.0
 70
     4
  0
VERTEX
  8
PERFIL_CURVA_2
 62
     256
 10
2.300000e+02
 20
6.081367e+01
 30
0.0
 70
     4
  0
VERTEX
  8
PERFIL_CURVA_2
 62
     256
 10
2.330000e+02
 20
6.026351e+01
 30
0.0
 70
     4
  0
VERTEX
  8
PERFIL_CURVA_2
 62
     256
 10
2.360000e+02
 20
5.974580e+01
 30
0.0
 70
     4
  0
VERTEX
  8
PERFIL_CURVA_2
 62
     256
 10
2.390000e+02
 20
5.926052e+01
 30
0.0
 70
     4
  0
VERTEX
  8
PERFIL_CURVA_2
 62
     256
 10
2.420000e+02
 20
5.880768e+01
 30
0.0
 70
     4
  0
VERTEX
  8
PERFIL_CURVA_2
 62
     256
 10
2.450000e+02
 20
5.838726e+01
 30
0.0
 70
     4
  0
VERTEX
  8
PERFIL_CURVA_2
 62
     256
 10
2.480000e+02
 20
5.799928e+01
 30
0.0
 70
     4
  0
VERTEX
  8
PERFIL_CURVA_2
 62
     256
 10
2.510000e+02
 20
5.764373e+01
 30
0.0
 70
     4
  0
VERTEX
  8
PERFIL_CURVA_2
 62
     256
 10
2.540000e+02
 20
5.732061e+01
 30
0.0
 70
     4
  0
VERTEX
  8
PERFIL_CURVA_2
 62
     256
 10
2.570000e+02
 20
5.702991e+01
 30
0.0
 70
     4
  0
VERTEX
  8
PERFIL_CURVA_2
 62
     256
 10
2.600000e+02
 20
5.677163e+01
 30
0.0
 70
     4
  0
VERTEX
  8
PERFIL_CURVA_2
 62
     256
 10
2.630000e+02
 20
5.654578e+01
 30
0.0
 70
     4
  0
VERTEX
  8
PERFIL_CURVA_2
 62
     256
 10
2.660000e+02
 20
5.635235e+01
 30
0.0
 70
     4
  0
VERTEX
  8
PERFIL_CURVA_2
 62
     256
 10
2.690000e+02
 20
5.619134e+01
 30
0.0
 70
     4
  0
VERTEX
  8
PERFIL_CURVA_2
 62
     256
 10
2.720000e+02
 20
5.606275e+01
 30
0.0
 70
     4
  0
VERTEX
  8
PERFIL_CURVA_2
 62
     256
 10
2.750000e+02
 20
5.596657e+01
 30
0.0
 70
     4
  0
VERTEX
  8
PERFIL_CURVA_2
 62
     256
 10
2.780000e+02
 20
5.590282e+01
 30
0.0
 70
     4
  0
VERTEX
  8
PERFIL_CURVA_2
 62
     256
 10
2.810000e+02
 20
5.587149e+01
 30
0.0
 70
     4
  0
VERTEX
  8
PERFIL_CURVA_2
 62
     256
 10
2.840000e+02
 20
5.587258e+01
 30
0.0
 70
     4
  0
VERTEX
  8
PERFIL_CURVA_2
 62
     256
 10
2.870000e+02
 20
5.590608e+01
 30
0.0
 70
     4
  0
VERTEX
  8
PERFIL_CURVA_2
 62
     256
 10
2.900000e+02
 20
5.597200e+01
 30
0.0
 70
     4
  0
VERTEX
  8
PERFIL_CURVA_2
 62
     256
 10
2.930000e+02
 20
5.607035e+01
 30
0.0
 70
     4
  0
VERTEX
  8
PERFIL_CURVA_2
 62
     256
 10
2.960000e+02
 20
5.620111e+01
 30
0.0
 70
     4
  0
VERTEX
  8
PERFIL_CURVA_2
 62
     256
 10
2.990000e+02
 20
5.636429e+01
 30
0.0
 70
     4
  0
VERTEX
  8
PERFIL_CURVA_2
 62
     256
 10
3.020000e+02
 20
5.655989e+01
 30
0.0
 70
     4
  0
VERTEX
  8
PERFIL_CURVA_2
 62
     256
 10
3.050000e+02
 20
5.678792e+01
 30
0.0
 70
     4
  0
VERTEX
  8
PERFIL_CURVA_2
 62
     256
 10
3.080000e+02
 20
5.704837e+01
 30
0.0
 70
     4
  0
VERTEX
  8
PERFIL_CURVA_2
 62
     256
 10
3.110000e+02
 20
5.734124e+01
 30
0.0
 70
     4
  0
VERTEX
  8
PERFIL_CURVA_2
 62
     256
 10
3.140000e+02
 20
5.766654e+01
 30
0.0
 70
     4
  0
VERTEX
  8
PERFIL_CURVA_2
 62
     256
 10
3.170000e+02
 20
5.802426e+01
 30
0.0
 70
     4
  0
VERTEX
  8
PERFIL_CURVA_2
 62
     256
 10
3.200000e+02
 20
5.841441e+01
 30
0.0
 70
     4
  0
VERTEX
  8
PERFIL_CURVA_2
 62
     256
 10
3.230000e+02
 20
5.883700e+01
 30
0.0
 70
     4
  0
VERTEX
  8
PERFIL_CURVA_2
 62
     256
 10
3.260000e+02
 20
5.929201e+01
 30
0.0
 70
     4
  0
VERTEX
  8
PERFIL_CURVA_2
 62
     256
 10
3.290000e+02
 20
5.977946e+01
 30
0.0
 70
     4
  0
VERTEX
  8
PERFIL_CURVA_2
 62
     256
 10
3.320000e+02
 20
6.029935e+01
 30
0.0
 70
     4
  0
VERTEX
  8
PERFIL_CURVA_2
 62
     256
 10
3.350000e+02
 20
6.085168e+01
 30
0.0
 70
     4
  0
VERTEX
  8
PERFIL_CURVA_2
 62
     256
 10
3.380000e+02
 20
6.143645e+01
 30
0.0
 70
     4
  0
VERTEX
  8
PERFIL_CURVA_2
 62
     256
 10
3.410000e+02
 20
6.205366e+01
 30
0.0
 70
     4
  0
VERTEX
  8
PERFIL_CURVA_2
 62
     256
 10
3.440000e+02
 20
6.270332e+01
 30
0.0
 70
     4
  0
VERTEX
  8
PERFIL_CURVA_2
 62
     256
 10
3.470000e+02
 20
6.338543e+01
 30
0.0
 70
     4
  0
VERTEX
  8
PERFIL_CURVA_2
 62
     256
 10
3.500000e+02
 20
6.410000e+01
 30
0.0
 70
     4
   0
SEQEND
  8
PERFIL_CURVA_2
 62
     256
  0
POLYLINE
  8
PERFIL_CABOS
 62
     256
 66
     1
 10
0.0
 20
0.0
 30
0.0
  0
VERTEX
  8
PERFIL_CABOS
 62
     256
 10
3.500000e+02
 20
1.116000e+02
 30
0.0
 70
     4
  0
VERTEX
  8
PERFIL_CABOS
 62
     256
 10
3.550000e+02
 20
1.094711e+02
 30
0.0
 70
     4
  0
VERTEX
  8
PERFIL_CABOS
 62
     256
 10
3.600000e+02
 20
1.074325e+02
 30
0.0
 70
     4
  0
VERTEX
  8
PERFIL_CABOS
 62
     256
 10
3.650000e+02
 20
1.054842e+02
 30
0.0
 70
     4
  0
VERTEX
  8
PERFIL_CABOS
 62
     256
 10
3.700000e+02
 20
1.036263e+02
 30
0.0
 70
     4
  0
VERTEX
  8
PERFIL_CABOS
 62
     256
 10
3.750000e+02
 20
1.018587e+02
 30
0.0
 70
     4
  0
VERTEX
  8
PERFIL_CABOS
 62
     256
 10
3.800000e+02
 20
1.001813e+02
 30
0.0
 70
     4
  0
VERTEX
  8
PERFIL_CABOS
 62
     256
 10
3.850000e+02
 20
9.859418e+01
 30
0.0
 70
     4
  0
VERTEX
  8
PERFIL_CABOS
 62
     256
 10
3.900000e+02
 20
9.709727e+01
 30
0.0
 70
     4
  0
VERTEX
  8
PERFIL_CABOS
 62
     256
 10
3.950000e+02
 20
9.569057e+01
 30
0.0
 70
     4
  0
VERTEX
  8
PERFIL_CABOS
 62
     256
 10
4.000000e+02
 20
9.437405e+01
 30
0.0
 70
     4
  0
VERTEX
  8
PERFIL_CABOS
 62
     256
 10
4.050000e+02
 20
9.314770e+01
 30
0.0
 70
     4
  0
VERTEX
  8
PERFIL_CABOS
 62
     256
 10
4.100000e+02
 20
9.201150e+01
 30
0.0
 70
     4
  0
VERTEX
  8
PERFIL_CABOS
 62
     256
 10
4.150000e+02
 20
9.096544e+01
 30
0.0
 70
     4
  0
VERTEX
  8
PERFIL_CABOS
 62
     256
 10
4.200000e+02
 20
9.000950e+01
 30
0.0
 70
     4
  0
VERTEX
  8
PERFIL_CABOS
 62
     256
 10
4.250000e+02
 20
8.914368e+01
 30
0.0
 70
     4
  0
VERTEX
  8
PERFIL_CABOS
 62
     256
 10
4.300000e+02
 20
8.836796e+01
 30
0.0
 70
     4
  0
VERTEX
  8
PERFIL_CABOS
 62
     256
 10
4.350000e+02
 20
8.768232e+01
 30
0.0
 70
     4
  0
VERTEX
  8
PERFIL_CABOS
 62
     256
 10
4.400000e+02
 20
8.708677e+01
 30
0.0
 70
     4
  0
VERTEX
  8
PERFIL_CABOS
 62
     256
 10
4.450000e+02
 20
8.658129e+01
 30
0.0
 70
     4
  0
VERTEX
  8
PERFIL_CABOS
 62
     256
 10
4.500000e+02
 20
8.616588e+01
 30
0.0
 70
     4
  0
VERTEX
  8
PERFIL_CABOS
 62
     256
 10
4.550000e+02
 20
8.584053e+01
 30
0.0
 70
     4
  0
VERTEX
  8
PERFIL_CABOS
 62
     256
 10
4.600000e+02
 20
8.560524e+01
 30
0.0
 70
     4
  0
VERTEX
  8
PERFIL_CABOS
 62
     256
 10
4.650000e+02
 20
8.546000e+01
 30
0.0
 70
     4
  0
VERTEX
  8
PERFIL_CABOS
 62
     256
 10
4.700000e+02
 20
8.540481e+01
 30
0.0
 70
     4
  0
VERTEX
  8
PERFIL_CABOS
 62
     256
 10
4.750000e+02
 20
8.543968e+01
 30
0.0
 70
     4
  0
VERTEX
  8
PERFIL_CABOS
 62
     256
 10
4.800000e+02
 20
8.556460e+01
 30
0.0
 70
     4
  0
VERTEX
  8
PERFIL_CABOS
 62
     256
 10
4.850000e+02
 20
8.577957e+01
 30
0.0
 70
     4
  0
VERTEX
  8
PERFIL_CABOS
 62
     256
 10
4.900000e+02
 20
8.608460e+01
 30
0.0
 70
     4
  0
VERTEX
  8
PERFIL_CABOS
 62
     256
 10
4.950000e+02
 20
8.647969e+01
 30
0.0
 70
     4
  0
VERTEX
  8
PERFIL_CABOS
 62
     256
 10
5.000000e+02
 20
8.696484e+01
 30
0.0
 70
     4
  0
VERTEX
  8
PERFIL_CABOS
 62
     256
 10
5.050000e+02
 20
8.754007e+01
 30
0.0
 70
     4
  0
VERTEX
  8
PERFIL_CABOS
 62
     256
 10
5.100000e+02
 20
8.820538e+01
 30
0.0
 70
     4
  0
VERTEX
  8
PERFIL_CABOS
 62
     256
 10
5.150000e+02
 20
8.896077e+01
 30
0.0
 70
     4
  0
VERTEX
  8
PERFIL_CABOS
 62
     256
 10
5.200000e+02
 20
8.980626e+01
 30
0.0
 70
     4
  0
VERTEX
  8
PERFIL_CABOS
 62
     256
 10
5.250000e+02
 20
9.074186e+01
 30
0.0
 70
     4
  0
VERTEX
  8
PERFIL_CABOS
 62
     256
 10
5.300000e+02
 20
9.176759e+01
 30
0.0
 70
     4
  0
VERTEX
  8
PERFIL_CABOS
 62
     256
 10
5.350000e+02
 20
9.288344e+01
 30
0.0
 70
     4
  0
VERTEX
  8
PERFIL_CABOS
 62
     256
 10
5.400000e+02
 20
9.408945e+01
 30
0.0
 70
     4
  0
VERTEX
  8
PERFIL_CABOS
 62
     256
 10
5.450000e+02
 20
9.538562e+01
 30
0.0
 70
     4
  0
VERTEX
  8
PERFIL_CABOS
 62
     256
 10
5.500000e+02
 20
9.677197e+01
 30
0.0
 70
     4
  0
VERTEX
  8
PERFIL_CABOS
 62
     256
 10
5.550000e+02
 20
9.824852e+01
 30
0.0
 70
     4
  0
VERTEX
  8
PERFIL_CABOS
 62
     256
 10
5.600000e+02
 20
9.981529e+01
 30
0.0
 70
     4
  0
VERTEX
  8
PERFIL_CABOS
 62
     256
 10
5.650000e+02
 20
1.014723e+02
 30
0.0
 70
     4
  0
VERTEX
  8
PERFIL_CABOS
 62
     256
 10
5.700000e+02
 20
1.032196e+02
 30
0.0
 70
     4
  0
VERTEX
  8
PERFIL_CABOS
 62
     256
 10
5.750000e+02
 20
1.050571e+02
 30
0.0
 70
     4
  0
VERTEX
  8
PERFIL_CABOS
 62
     256
 10
5.800000e+02
 20
1.069850e+02
 30
0.0
 70
     4
  0
VERTEX
  8
PERFIL_CABOS
 62
     256
 10
5.850000e+02
 20
1.090032e+02
 30
0.0
 70
     4
  0
VERTEX
  8
PERFIL_CABOS
 62
     256
 10
5.900000e+02
 20
1.111117e+02
 30
0.0
 70
     4
  0
VERTEX
  8
PERFIL_CABOS
 62
     256
 10
5.950000e+02
 20
1.133107e+02
 30
0.0
 70
     4
  0
VERTEX
  8
PERFIL_CABOS
 62
     256
 10
6.000000e+02
 20
1.156000e+02
 30
0.0
 70
     4
   0
SEQEND
  8
PERFIL_CABOS
 62
     256
  0
POLYLINE
  8
PERFIL_CABOS
 62
     256
 66
     1
 10
0.0
 20
0.0
 30
0.0
  0
VERTEX
  8
PERFIL_CABOS
 62
     256
 10
3.500000e+02
 20
1.053500e+02
 30
0.0
 70
     4
  0
VERTEX
  8
PERFIL_CABOS
 62
     256
 10
3.550000e+02
 20
1.032211e+02
 30
0.0
 70
     4
  0
VERTEX
  8
PERFIL_CABOS
 62
     256
 10
3.600000e+02
 20
1.011825e+02
 30
0.0
 70
     4
  0
VERTEX
  8
PERFIL_CABOS
 62
     256
 10
3.650000e+02
 20
9.923424e+01
 30
0.0
 70
     4
  0
VERTEX
  8
PERFIL_CABOS
 62
     256
 10
3.700000e+02
 20
9.737632e+01
 30
0.0
 70
     4
  0
VERTEX
  8
PERFIL_CABOS
 62
     256
 10
3.750000e+02
 20
9.560868e+01
 30
0.0
 70
     4
  0
VERTEX
  8
PERFIL_CABOS
 62
     256
 10
3.800000e+02
 20
9.393131e+01
 30
0.0
 70
     4
  0
VERTEX
  8
PERFIL_CABOS
 62
     256
 10
3.850000e+02
 20
9.234418e+01
 30
0.0
 70
     4
  0
VERTEX
  8
PERFIL_CABOS
 62
     256
 10
3.900000e+02
 20
9.084727e+01
 30
0.0
 70
     4
  0
VERTEX
  8
PERFIL_CABOS
 62
     256
 10
3.950000e+02
 20
8.944057e+01
 30
0.0
 70
     4
  0
VERTEX
  8
PERFIL_CABOS
 62
     256
 10
4.000000e+02
 20
8.812405e+01
 30
0.0
 70
     4
  0
VERTEX
  8
PERFIL_CABOS
 62
     256
 10
4.050000e+02
 20
8.689770e+01
 30
0.0
 70
     4
  0
VERTEX
  8
PERFIL_CABOS
 62
     256
 10
4.100000e+02
 20
8.576150e+01
 30
0.0
 70
     4
  0
VERTEX
  8
PERFIL_CABOS
 62
     256
 10
4.150000e+02
 20
8.471544e+01
 30
0.0
 70
     4
  0
VERTEX
  8
PERFIL_CABOS
 62
     256
 10
4.200000e+02
 20
8.375950e+01
 30
0.0
 70
     4
  0
VERTEX
  8
PERFIL_CABOS
 62
     256
 10
4.250000e+02
 20
8.289368e+01
 30
0.0
 70
     4
  0
VERTEX
  8
PERFIL_CABOS
 62
     256
 10
4.300000e+02
 20
8.211796e+01
 30
0.0
 70
     4
  0
VERTEX
  8
PERFIL_CABOS
 62
     256
 10
4.350000e+02
 20
8.143232e+01
 30
0.0
 70
     4
  0
VERTEX
  8
PERFIL_CABOS
 62
     256
 10
4.400000e+02
 20
8.083677e+01
 30
0.0
 70
     4
  0
VERTEX
  8
PERFIL_CABOS
 62
     256
 10
4.450000e+02
 20
8.033129e+01
 30
0.0
 70
     4
  0
VERTEX
  8
PERFIL_CABOS
 62
     256
 10
4.500000e+02
 20
7.991588e+01
 30
0.0
 70
     4
  0
VERTEX
  8
PERFIL_CABOS
 62
     256
 10
4.550000e+02
 20
7.959053e+01
 30
0.0
 70
     4
  0
VERTEX
  8
PERFIL_CABOS
 62
     256
 10
4.600000e+02
 20
7.935524e+01
 30
0.0
 70
     4
  0
VERTEX
  8
PERFIL_CABOS
 62
     256
 10
4.650000e+02
 20
7.921000e+01
 30
0.0
 70
     4
  0
VERTEX
  8
PERFIL_CABOS
 62
     256
 10
4.700000e+02
 20
7.915481e+01
 30
0.0
 70
     4
  0
VERTEX
  8
PERFIL_CABOS
 62
     256
 10
4.750000e+02
 20
7.918968e+01
 30
0.0
 70
     4
  0
VERTEX
  8
PERFIL_CABOS
 62
     256
 10
4.800000e+02
 20
7.931460e+01
 30
0.0
 70
     4
  0
VERTEX
  8
PERFIL_CABOS
 62
     256
 10
4.850000e+02
 20
7.952957e+01
 30
0.0
 70
     4
  0
VERTEX
  8
PERFIL_CABOS
 62
     256
 10
4.900000e+02
 20
7.983460e+01
 30
0.0
 70
     4
  0
VERTEX
  8
PERFIL_CABOS
 62
     256
 10
4.950000e+02
 20
8.022969e+01
 30
0.0
 70
     4
  0
VERTEX
  8
PERFIL_CABOS
 62
     256
 10
5.000000e+02
 20
8.071484e+01
 30
0.0
 70
     4
  0
VERTEX
  8
PERFIL_CABOS
 62
     256
 10
5.050000e+02
 20
8.129007e+01
 30
0.0
 70
     4
  0
VERTEX
  8
PERFIL_CABOS
 62
     256
 10
5.100000e+02
 20
8.195538e+01
 30
0.0
 70
     4
  0
VERTEX
  8
PERFIL_CABOS
 62
     256
 10
5.150000e+02
 20
8.271077e+01
 30
0.0
 70
     4
  0
VERTEX
  8
PERFIL_CABOS
 62
     256
 10
5.200000e+02
 20
8.355626e+01
 30
0.0
 70
     4
  0
VERTEX
  8
PERFIL_CABOS
 62
     256
 10
5.250000e+02
 20
8.449186e+01
 30
0.0
 70
     4
  0
VERTEX
  8
PERFIL_CABOS
 62
     256
 10
5.300000e+02
 20
8.551759e+01
 30
0.0
 70
     4
  0
VERTEX
  8
PERFIL_CABOS
 62
     256
 10
5.350000e+02
 20
8.663344e+01
 30
0.0
 70
     4
  0
VERTEX
  8
PERFIL_CABOS
 62
     256
 10
5.400000e+02
 20
8.783945e+01
 30
0.0
 70
     4
  0
VERTEX
  8
PERFIL_CABOS
 62
     256
 10
5.450000e+02
 20
8.913562e+01
 30
0.0
 70
     4
  0
VERTEX
  8
PERFIL_CABOS
 62
     256
 10
5.500000e+02
 20
9.052197e+01
 30
0.0
 70
     4
  0
VERTEX
  8
PERFIL_CABOS
 62
     256
 10
5.550000e+02
 20
9.199852e+01
 30
0.0
 70
     4
  0
VERTEX
  8
PERFIL_CABOS
 62
     256
 10
5.600000e+02
 20
9.356529e+01
 30
0.0
 70
     4
  0
VERTEX
  8
PERFIL_CABOS
 62
     256
 10
5.650000e+02
 20
9.522230e+01
 30
0.0
 70
     4
  0
VERTEX
  8
PERFIL_CABOS
 62
     256
 10
5.700000e+02
 20
9.696957e+01
 30
0.0
 70
     4
  0
VERTEX
  8
PERFIL_CABOS
 62
     256
 10
5.750000e+02
 20
9.880712e+01
 30
0.0
 70
     4
  0
VERTEX
  8
PERFIL_CABOS
 62
     256
 10
5.800000e+02
 20
1.007350e+02
 30
0.0
 70
     4
  0
VERTEX
  8
PERFIL_CABOS
 62
     256
 10
5.850000e+02
 20
1.027532e+02
 30
0.0
 70
     4
  0
VERTEX
  8
PERFIL_CABOS
 62
     256
 10
5.900000e+02
 20
1.048617e+02
 30
0.0
 70
     4
  0
VERTEX
  8
PERFIL_CABOS
 62
     256
 10
5.950000e+02
 20
1.070607e+02
 30
0.0
 70
     4
  0
VERTEX
  8
PERFIL_CABOS
 62
     256
 10
6.000000e+02
 20
1.093500e+02
 30
0.0
 70
     4
   0
SEQEND
  8
PERFIL_CABOS
 62
     256
  0
POLYLINE
  8
PERFIL_CABOS
 62
     256
 66
     1
 10
0.0
 20
0.0
 30
0.0
  0
VERTEX
  8
PERFIL_CABOS
 62
     256
 10
3.500000e+02
 20
9.910000e+01
 30
0.0
 70
     4
  0
VERTEX
  8
PERFIL_CABOS
 62
     256
 10
3.550000e+02
 20
9.697106e+01
 30
0.0
 70
     4
  0
VERTEX
  8
PERFIL_CABOS
 62
     256
 10
3.600000e+02
 20
9.493248e+01
 30
0.0
 70
     4
  0
VERTEX
  8
PERFIL_CABOS
 62
     256
 10
3.650000e+02
 20
9.298424e+01
 30
0.0
 70
     4
  0
VERTEX
  8
PERFIL_CABOS
 62
     256
 10
3.700000e+02
 20
9.112632e+01
 30
0.0
 70
     4
  0
VERTEX
  8
PERFIL_CABOS
 62
     256
 10
3.750000e+02
 20
8.935868e+01
 30
0.0
 70
     4
  0
VERTEX
  8
PERFIL_CABOS
 62
     256
 10
3.800000e+02
 20
8.768131e+01
 30
0.0
 70
     4
  0
VERTEX
  8
PERFIL_CABOS
 62
     256
 10
3.850000e+02
 20
8.609418e+01
 30
0.0
 70
     4
  0
VERTEX
  8
PERFIL_CABOS
 62
     256
 10
3.900000e+02
 20
8.459727e+01
 30
0.0
 70
     4
  0
VERTEX
  8
PERFIL_CABOS
 62
     256
 10
3.950000e+02
 20
8.319057e+01
 30
0.0
 70
     4
  0
VERTEX
  8
PERFIL_CABOS
 62
     256
 10
4.000000e+02
 20
8.187405e+01
 30
0.0
 70
     4
  0
VERTEX
  8
PERFIL_CABOS
 62
     256
 10
4.050000e+02
 20
8.064770e+01
 30
0.0
 70
     4
  0
VERTEX
  8
PERFIL_CABOS
 62
     256
 10
4.100000e+02
 20
7.951150e+01
 30
0.0
 70
     4
  0
VERTEX
  8
PERFIL_CABOS
 62
     256
 10
4.150000e+02
 20
7.846544e+01
 30
0.0
 70
     4
  0
VERTEX
  8
PERFIL_CABOS
 62
     256
 10
4.200000e+02
 20
7.750950e+01
 30
0.0
 70
     4
  0
VERTEX
  8
PERFIL_CABOS
 62
     256
 10
4.250000e+02
 20
7.664368e+01
 30
0.0
 70
     4
  0
VERTEX
  8
PERFIL_CABOS
 62
     256
 10
4.300000e+02
 20
7.586796e+01
 30
0.0
 70
     4
  0
VERTEX
  8
PERFIL_CABOS
 62
     256
 10
4.350000e+02
 20
7.518232e+01
 30
0.0
 70
     4
  0
VERTEX
  8
PERFIL_CABOS
 62
     256
 10
4.400000e+02
 20
7.458677e+01
 30
0.0
 70
     4
  0
VERTEX
  8
PERFIL_CABOS
 62
     256
 10
4.450000e+02
 20
7.408129e+01
 30
0.0
 70
     4
  0
VERTEX
  8
PERFIL_CABOS
 62
     256
 10
4.500000e+02
 20
7.366588e+01
 30
0.0
 70
     4
  0
VERTEX
  8
PERFIL_CABOS
 62
     256
 10
4.550000e+02
 20
7.334053e+01
 30
0.0
 70
     4
  0
VERTEX
  8
PERFIL_CABOS
 62
     256
 10
4.600000e+02
 20
7.310524e+01
 30
0.0
 70
     4
  0
VERTEX
  8
PERFIL_CABOS
 62
     256
 10
4.650000e+02
 20
7.296000e+01
 30
0.0
 70
     4
  0
VERTEX
  8
PERFIL_CABOS
 62
     256
 10
4.700000e+02
 20
7.290481e+01
 30
0.0
 70
     4
  0
VERTEX
  8
PERFIL_CABOS
 62
     256
 10
4.750000e+02
 20
7.293968e+01
 30
0.0
 70
     4
  0
VERTEX
  8
PERFIL_CABOS
 62
     256
 10
4.800000e+02
 20
7.306460e+01
 30
0.0
 70
     4
  0
VERTEX
  8
PERFIL_CABOS
 62
     256
 10
4.850000e+02
 20
7.327957e+01
 30
0.0
 70
     4
  0
VERTEX
  8
PERFIL_CABOS
 62
     256
 10
4.900000e+02
 20
7.358460e+01
 30
0.0
 70
     4
  0
VERTEX
  8
PERFIL_CABOS
 62
     256
 10
4.950000e+02
 20
7.397969e+01
 30
0.0
 70
     4
  0
VERTEX
  8
PERFIL_CABOS
 62
     256
 10
5.000000e+02
 20
7.446484e+01
 30
0.0
 70
     4
  0
VERTEX
  8
PERFIL_CABOS
 62
     256
 10
5.050000e+02
 20
7.504007e+01
 30
0.0
 70
     4
  0
VERTEX
  8
PERFIL_CABOS
 62
     256
 10
5.100000e+02
 20
7.570538e+01
 30
0.0
 70
     4
  0
VERTEX
  8
PERFIL_CABOS
 62
     256
 10
5.150000e+02
 20
7.646077e+01
 30
0.0
 70
     4
  0
VERTEX
  8
PERFIL_CABOS
 62
     256
 10
5.200000e+02
 20
7.730626e+01
 30
0.0
 70
     4
  0
VERTEX
  8
PERFIL_CABOS
 62
     256
 10
5.250000e+02
 20
7.824186e+01
 30
0.0
 70
     4
  0
VERTEX
  8
PERFIL_CABOS
 62
     256
 10
5.300000e+02
 20
7.926759e+01
 30
0.0
 70
     4
  0
VERTEX
  8
PERFIL_CABOS
 62
     256
 10
5.350000e+02
 20
8.038344e+01
 30
0.0
 70
     4
  0
VERTEX
  8
PERFIL_CABOS
 62
     256
 10
5.400000e+02
 20
8.158945e+01
 30
0.0
 70
     4
  0
VERTEX
  8
PERFIL_CABOS
 62
     256
 10
5.450000e+02
 20
8.288562e+01
 30
0.0
 70
     4
  0
VERTEX
  8
PERFIL_CABOS
 62
     256
 10
5.500000e+02
 20
8.427197e+01
 30
0.0
 70
     4
  0
VERTEX
  8
PERFIL_CABOS
 62
     256
 10
5.550000e+02
 20
8.574852e+01
 30
0.0
 70
     4
  0
VERTEX
  8
PERFIL_CABOS
 62
     256
 10
5.600000e+02
 20
8.731529e+01
 30
0.0
 70
     4
  0
VERTEX
  8
PERFIL_CABOS
 62
     256
 10
5.650000e+02
 20
8.897230e+01
 30
0.0
 70
     4
  0
VERTEX
  8
PERFIL_CABOS
 62
     256
 10
5.700000e+02
 20
9.071957e+01
 30
0.0
 70
     4
  0
VERTEX
  8
PERFIL_CABOS
 62
     256
 10
5.750000e+02
 20
9.255712e+01
 30
0.0
 70
     4
  0
VERTEX
  8
PERFIL_CABOS
 62
     256
 10
5.800000e+02
 20
9.448498e+01
 30
0.0
 70
     4
  0
VERTEX
  8
PERFIL_CABOS
 62
     256
 10
5.850000e+02
 20
9.650317e+01
 30
0.0
 70
     4
  0
VERTEX
  8
PERFIL_CABOS
 62
     256
 10
5.900000e+02
 20
9.861172e+01
 30
0.0
 70
     4
  0
VERTEX
  8
PERFIL_CABOS
 62
     256
 10
5.950000e+02
 20
1.008107e+02
 30
0.0
 70
     4
  0
VERTEX
  8
PERFIL_CABOS
 62
     256
 10
6.000000e+02
 20
1.031000e+02
 30
0.0
 70
     4
   0
SEQEND
  8
PERFIL_CABOS
 62
     256
  0
POLYLINE
  8
PERFIL_CURVA_1
 62
     256
 66
     1
 10
0.0
 20
0.0
 30
0.0
  0
VERTEX
  8
PERFIL_CURVA_1
 62
     256
 10
3.500000e+02
 20
7.910000e+01
 30
0.0
 70
     4
  0
VERTEX
  8
PERFIL_CURVA_1
 62
     256
 10
3.550000e+02
 20
7.697106e+01
 30
0.0
 70
     4
  0
VERTEX
  8
PERFIL_CURVA_1
 62
     256
 10
3.600000e+02
 20
7.493248e+01
 30
0.0
 70
     4
  0
VERTEX
  8
PERFIL_CURVA_1
 62
     256
 10
3.650000e+02
 20
7.298424e+01
 30
0.0
 70
     4
  0
VERTEX
  8
PERFIL_CURVA_1
 62
     256
 10
3.700000e+02
 20
7.112632e+01
 30
0.0
 70
     4
  0
VERTEX
  8
PERFIL_CURVA_1
 62
     256
 10
3.750000e+02
 20
6.935868e+01
 30
0.0
 70
     4
  0
VERTEX
  8
PERFIL_CURVA_1
 62
     256
 10
3.800000e+02
 20
6.768131e+01
 30
0.0
 70
     4
  0
VERTEX
  8
PERFIL_CURVA_1
 62
     256
 10
3.850000e+02
 20
6.609418e+01
 30
0.0
 70
     4
  0
VERTEX
  8
PERFIL_CURVA_1
 62
     256
 10
3.900000e+02
 20
6.459727e+01
 30
0.0
 70
     4
  0
VERTEX
  8
PERFIL_CURVA_1
 62
     256
 10
3.950000e+02
 20
6.319057e+01
 30
0.0
 70
     4
  0
VERTEX
  8
PERFIL_CURVA_1
 62
     256
 10
4.000000e+02
 20
6.187405e+01
 30
0.0
 70
     4
  0
VERTEX
  8
PERFIL_CURVA_1
 62
     256
 10
4.050000e+02
 20
6.064770e+01
 30
0.0
 70
     4
  0
VERTEX
  8
PERFIL_CURVA_1
 62
     256
 10
4.100000e+02
 20
5.951150e+01
 30
0.0
 70
     4
  0
VERTEX
  8
PERFIL_CURVA_1
 62
     256
 10
4.150000e+02
 20
5.846544e+01
 30
0.0
 70
     4
  0
VERTEX
  8
PERFIL_CURVA_1
 62
     256
 10
4.200000e+02
 20
5.750950e+01
 30
0.0
 70
     4
  0
VERTEX
  8
PERFIL_CURVA_1
 62
     256
 10
4.250000e+02
 20
5.664368e+01
 30
0.0
 70
     4
  0
VERTEX
  8
PERFIL_CURVA_1
 62
     256
 10
4.300000e+02
 20
5.586796e+01
 30
0.0
 70
     4
  0
VERTEX
  8
PERFIL_CURVA_1
 62
     256
 10
4.350000e+02
 20
5.518232e+01
 30
0.0
 70
     4
  0
VERTEX
  8
PERFIL_CURVA_1
 62
     256
 10
4.400000e+02
 20
5.458677e+01
 30
0.0
 70
     4
  0
VERTEX
  8
PERFIL_CURVA_1
 62
     256
 10
4.450000e+02
 20
5.408129e+01
 30
0.0
 70
     4
  0
VERTEX
  8
PERFIL_CURVA_1
 62
     256
 10
4.500000e+02
 20
5.366588e+01
 30
0.0
 70
     4
  0
VERTEX
  8
PERFIL_CURVA_1
 62
     256
 10
4.550000e+02
 20
5.334053e+01
 30
0.0
 70
     4
  0
VERTEX
  8
PERFIL_CURVA_1
 62
     256
 10
4.600000e+02
 20
5.310524e+01
 30
0.0
 70
     4
  0
VERTEX
  8
PERFIL_CURVA_1
 62
     256
 10
4.650000e+02
 20
5.296000e+01
 30
0.0
 70
     4
  0
VERTEX
  8
PERFIL_CURVA_1
 62
     256
 10
4.700000e+02
 20
5.290481e+01
 30
0.0
 70
     4
  0
VERTEX
  8
PERFIL_CURVA_1
 62
     256
 10
4.750000e+02
 20
5.293968e+01
 30
0.0
 70
     4
  0
VERTEX
  8
PERFIL_CURVA_1
 62
     256
 10
4.800000e+02
 20
5.306460e+01
 30
0.0
 70
     4
  0
VERTEX
  8
PERFIL_CURVA_1
 62
     256
 10
4.850000e+02
 20
5.327957e+01
 30
0.0
 70
     4
  0
VERTEX
  8
PERFIL_CURVA_1
 62
     256
 10
4.900000e+02
 20
5.358460e+01
 30
0.0
 70
     4
  0
VERTEX
  8
PERFIL_CURVA_1
 62
     256
 10
4.950000e+02
 20
5.397969e+01
 30
0.0
 70
     4
  0
VERTEX
  8
PERFIL_CURVA_1
 62
     256
 10
5.000000e+02
 20
5.446484e+01
 30
0.0
 70
     4
  0
VERTEX
  8
PERFIL_CURVA_1
 62
     256
 10
5.050000e+02
 20
5.504007e+01
 30
0.0
 70
     4
  0
VERTEX
  8
PERFIL_CURVA_1
 62
     256
 10
5.100000e+02
 20
5.570538e+01
 30
0.0
 70
     4
  0
VERTEX
  8
PERFIL_CURVA_1
 62
     256
 10
5.150000e+02
 20
5.646077e+01
 30
0.0
 70
     4
  0
VERTEX
  8
PERFIL_CURVA_1
 62
     256
 10
5.200000e+02
 20
5.730626e+01
 30
0.0
 70
     4
  0
VERTEX
  8
PERFIL_CURVA_1
 62
     256
 10
5.250000e+02
 20
5.824186e+01
 30
0.0
 70
     4
  0
VERTEX
  8
PERFIL_CURVA_1
 62
     256
 10
5.300000e+02
 20
5.926759e+01
 30
0.0
 70
     4
  0
VERTEX
  8
PERFIL_CURVA_1
 62
     256
 10
5.350000e+02
 20
6.038344e+01
 30
0.0
 70
     4
  0
VERTEX
  8
PERFIL_CURVA_1
 62
     256
 10
5.400000e+02
 20
6.158945e+01
 30
0.0
 70
     4
  0
VERTEX
  8
PERFIL_CURVA_1
 62
     256
 10
5.450000e+02
 20
6.288562e+01
 30
0.0
 70
     4
  0
VERTEX
  8
PERFIL_CURVA_1
 62
     256
 10
5.500000e+02
 20
6.427197e+01
 30
0.0
 70
     4
  0
VERTEX
  8
PERFIL_CURVA_1
 62
     256
 10
5.550000e+02
 20
6.574852e+01
 30
0.0
 70
     4
  0
VERTEX
  8
PERFIL_CURVA_1
 62
     256
 10
5.600000e+02
 20
6.731529e+01
 30
0.0
 70
     4
  0
VERTEX
  8
PERFIL_CURVA_1
 62
     256
 10
5.650000e+02
 20
6.897230e+01
 30
0.0
 70
     4
  0
VERTEX
  8
PERFIL_CURVA_1
 62
     256
 10
5.700000e+02
 20
7.071957e+01
 30
0.0
 70
     4
  0
VERTEX
  8
PERFIL_CURVA_1
 62
     256
 10
5.750000e+02
 20
7.255712e+01
 30
0.0
 70
     4
  0
VERTEX
  8
PERFIL_CURVA_1
 62
     256
 10
5.800000e+02
 20
7.448498e+01
 30
0.0
 70
     4
  0
VERTEX
  8
PERFIL_CURVA_1
 62
     256
 10
5.850000e+02
 20
7.650317e+01
 30
0.0
 70
     4
  0
VERTEX
  8
PERFIL_CURVA_1
 62
     256
 10
5.900000e+02
 20
7.861172e+01
 30
0.0
 70
     4
  0
VERTEX
  8
PERFIL_CURVA_1
 62
     256
 10
5.950000e+02
 20
8.081065e+01
 30
0.0
 70
     4
  0
VERTEX
  8
PERFIL_CURVA_1
 62
     256
 10
6.000000e+02
 20
8.310000e+01
 30
0.0
 70
     4
   0
SEQEND
  8
PERFIL_CURVA_1
 62
     256
  0
POLYLINE
  8
PERFIL_CURVA_2
 62
     256
 66
     1
 10
0.0
 20
0.0
 30
0.0
  0
VERTEX
  8
PERFIL_CURVA_2
 62
     256
 10
3.500000e+02
 20
6.410000e+01
 30
0.0
 70
     4
  0
VERTEX
  8
PERFIL_CURVA_2
 62
     256
 10
3.550000e+02
 20
6.197106e+01
 30
0.0
 70
     4
  0
VERTEX
  8
PERFIL_CURVA_2
 62
     256
 10
3.600000e+02
 20
5.993248e+01
 30
0.0
 70
     4
  0
VERTEX
  8
PERFIL_CURVA_2
 62
     256
 10
3.650000e+02
 20
5.798424e+01
 30
0.0
 70
     4
  0
VERTEX
  8
PERFIL_CURVA_2
 62
     256
 10
3.700000e+02
 20
5.612632e+01
 30
0.0
 70
     4
  0
VERTEX
  8
PERFIL_CURVA_2
 62
     256
 10
3.750000e+02
 20
5.435868e+01
 30
0.0
 70
     4
  0
VERTEX
  8
PERFIL_CURVA_2
 62
     256
 10
3.800000e+02
 20
5.268131e+01
 30
0.0
 70
     4
  0
VERTEX
  8
PERFIL_CURVA_2
 62
     256
 10
3.850000e+02
 20
5.109418e+01
 30
0.0
 70
     4
  0
VERTEX
  8
PERFIL_CURVA_2
 62
     256
 10
3.900000e+02
 20
4.959727e+01
 30
0.0
 70
     4
  0
VERTEX
  8
PERFIL_CURVA_2
 62
     256
 10
3.950000e+02
 20
4.819057e+01
 30
0.0
 70
     4
  0
VERTEX
  8
PERFIL_CURVA_2
 62
     256
 10
4.000000e+02
 20
4.687405e+01
 30
0.0
 70
     4
  0
VERTEX
  8
PERFIL_CURVA_2
 62
     256
 10
4.050000e+02
 20
4.564770e+01
 30
0.0
 70
     4
  0
VERTEX
  8
PERFIL_CURVA_2
 62
     256
 10
4.100000e+02
 20
4.451150e+01
 30
0.0
 70
     4
  0
VERTEX
  8
PERFIL_CURVA_2
 62
     256
 10
4.150000e+02
 20
4.346544e+01
 30
0.0
 70
     4
  0
VERTEX
  8
PERFIL_CURVA_2
 62
     256
 10
4.200000e+02
 20
4.250950e+01
 30
0.0
 70
     4
  0
VERTEX
  8
PERFIL_CURVA_2
 62
     256
 10
4.250000e+02
 20
4.164368e+01
 30
0.0
 70
     4
  0
VERTEX
  8
PERFIL_CURVA_2
 62
     256
 10
4.300000e+02
 20
4.086796e+01
 30
0.0
 70
     4
  0
VERTEX
  8
PERFIL_CURVA_2
 62
     256
 10
4.350000e+02
 20
4.018232e+01
 30
0.0
 70
     4
  0
VERTEX
  8
PERFIL_CURVA_2
 62
     256
 10
4.400000e+02
 20
3.958677e+01
 30
0.0
 70
     4
  0
VERTEX
  8
PERFIL_CURVA_2
 62
     256
 10
4.450000e+02
 20
3.908129e+01
 30
0.0
 70
     4
  0
VERTEX
  8
PERFIL_CURVA_2
 62
     256
 10
4.500000e+02
 20
3.866588e+01
 30
0.0
 70
     4
  0
VERTEX
  8
PERFIL_CURVA_2
 62
     256
 10
4.550000e+02
 20
3.834053e+01
 30
0.0
 70
     4
  0
VERTEX
  8
PERFIL_CURVA_2
 62
     256
 10
4.600000e+02
 20
3.810524e+01
 30
0.0
 70
     4
  0
VERTEX
  8
PERFIL_CURVA_2
 62
     256
 10
4.650000e+02
 20
3.796000e+01
 30
0.0
 70
     4
  0
VERTEX
  8
PERFIL_CURVA_2
 62
     256
 10
4.700000e+02
 20
3.790481e+01
 30
0.0
 70
     4
  0
VERTEX
  8
PERFIL_CURVA_2
 62
     256
 10
4.750000e+02
 20
3.793968e+01
 30
0.0
 70
     4
  0
VERTEX
  8
PERFIL_CURVA_2
 62
     256
 10
4.800000e+02
 20
3.806460e+01
 30
0.0
 70
     4
  0
VERTEX
  8
PERFIL_CURVA_2
 62
     256
 10
4.850000e+02
 20
3.827957e+01
 30
0.0
 70
     4
  0
VERTEX
  8
PERFIL_CURVA_2
 62
     256
 10
4.900000e+02
 20
3.858460e+01
 30
0.0
 70
     4
  0
VERTEX
  8
PERFIL_CURVA_2
 62
     256
 10
4.950000e+02
 20
3.897969e+01
 30
0.0
 70
     4
  0
VERTEX
  8
PERFIL_CURVA_2
 62
     256
 10
5.000000e+02
 20
3.946484e+01
 30
0.0
 70
     4
  0
VERTEX
  8
PERFIL_CURVA_2
 62
     256
 10
5.050000e+02
 20
4.004007e+01
 30
0.0
 70
     4
  0
VERTEX
  8
PERFIL_CURVA_2
 62
     256
 10
5.100000e+02
 20
4.070538e+01
 30
0.0
 70
     4
  0
VERTEX
  8
PERFIL_CURVA_2
 62
     256
 10
5.150000e+02
 20
4.146077e+01
 30
0.0
 70
     4
  0
VERTEX
  8
PERFIL_CURVA_2
 62
     256
 10
5.200000e+02
 20
4.230626e+01
 30
0.0
 70
     4
  0
VERTEX
  8
PERFIL_CURVA_2
 62
     256
 10
5.250000e+02
 20
4.324186e+01
 30
0.0
 70
     4
  0
VERTEX
  8
PERFIL_CURVA_2
 62
     256
 10
5.300000e+02
 20
4.426759e+01
 30
0.0
 70
     4
  0
VERTEX
  8
PERFIL_CURVA_2
 62
     256
 10
5.350000e+02
 20
4.538344e+01
 30
0.0
 70
     4
  0
VERTEX
  8
PERFIL_CURVA_2
 62
     256
 10
5.400000e+02
 20
4.658945e+01
 30
0.0
 70
     4
  0
VERTEX
  8
PERFIL_CURVA_2
 62
     256
 10
5.450000e+02
 20
4.788562e+01
 30
0.0
 70
     4
  0
VERTEX
  8
PERFIL_CURVA_2
 62
     256
 10
5.500000e+02
 20
4.927197e+01
 30
0.0
 70
     4
  0
VERTEX
  8
PERFIL_CURVA_2
 62
     256
 10
5.550000e+02
 20
5.074852e+01
 30
0.0
 70
     4
  0
VERTEX
  8
PERFIL_CURVA_2
 62
     256
 10
5.600000e+02
 20
5.231529e+01
 30
0.0
 70
     4
  0
VERTEX
  8
PERFIL_CURVA_2
 62
     256
 10
5.650000e+02
 20
5.397230e+01
 30
0.0
 70
     4
  0
VERTEX
  8
PERFIL_CURVA_2
 62
     256
 10
5.700000e+02
 20
5.571957e+01
 30
0.0
 70
     4
  0
VERTEX
  8
PERFIL_CURVA_2
 62
     256
 10
5.750000e+02
 20
5.755712e+01
 30
0.0
 70
     4
  0
VERTEX
  8
PERFIL_CURVA_2
 62
     256
 10
5.800000e+02
 20
5.948498e+01
 30
0.0
 70
     4
  0
VERTEX
  8
PERFIL_CURVA_2
 62
     256
 10
5.850000e+02
 20
6.150317e+01
 30
0.0
 70
     4
  0
VERTEX
  8
PERFIL_CURVA_2
 62
     256
 10
5.900000e+02
 20
6.361172e+01
 30
0.0
 70
     4
  0
VERTEX
  8
PERFIL_CURVA_2
 62
     256
 10
5.950000e+02
 20
6.581065e+01
 30
0.0
 70
     4
  0
VERTEX
  8
PERFIL_CURVA_2
 62
     256
 10
6.000000e+02
 20
6.810000e+01
 30
0.0
 70
     4
   0
SEQEND
  8
PERFIL_CURVA_2
 62
     256
 0
LINE
 8
LEGENDA_GUITARRA_EXTERIOR
 6
CONTINUOUS
 62
     256
 10
-2.000000e+02
 20
0.000000e+00
 30
0.000000e+00
 11
6.700000e+02
 21
0.000000e+00
 31
0.000000e+00
 0
LINE
 8
LEGENDA_GUITARRA_INTERIOR
 6
CONTINUOUS
 62
     256
 10
-2.000000e+02
 20
-1.000000e+01
 30
0.000000e+00
 11
6.700000e+02
 21
-1.000000e+01
 31
0.000000e+00
 0
LINE
 8
LEGENDA_GUITARRA_INTERIOR
 6
CONTINUOUS
 62
     256
 10
-2.000000e+02
 20
-2.000000e+01
 30
0.000000e+00
 11
6.700000e+02
 21
-2.000000e+01
 31
0.000000e+00
 0
LINE
 8
LEGENDA_GUITARRA_INTERIOR
 6
CONTINUOUS
 62
     256
 10
-2.000000e+02
 20
-3.000000e+01
 30
0.000000e+00
 11
6.700000e+02
 21
-3.000000e+01
 31
0.000000e+00
 0
LINE
 8
LEGENDA_GUITARRA_INTERIOR
 6
CONTINUOUS
 62
     256
 10
-2.000000e+02
 20
-4.000000e+01
 30
0.000000e+00
 11
6.700000e+02
 21
-4.000000e+01
 31
0.000000e+00
 0
LINE
 8
LEGENDA_GUITARRA_INTERIOR
 6
CONTINUOUS
 62
     256
 10
-2.000000e+02
 20
-5.000000e+01
 30
0.000000e+00
 11
6.700000e+02
 21
-5.000000e+01
 31
0.000000e+00
 0
LINE
 8
LEGENDA_GUITARRA_INTERIOR
 6
CONTINUOUS
 62
     256
 10
-2.000000e+02
 20
-6.000000e+01
 30
0.000000e+00
 11
6.700000e+02
 21
-6.000000e+01
 31
0.000000e+00
 0
LINE
 8
LEGENDA_GUITARRA_INTERIOR
 6
CONTINUOUS
 62
     256
 10
-2.000000e+02
 20
-7.000000e+01
 30
0.000000e+00
 11
6.700000e+02
 21
-7.000000e+01
 31
0.000000e+00
 0
LINE
 8
LEGENDA_GUITARRA_INTERIOR
 6
CONTINUOUS
 62
     256
 10
-2.000000e+02
 20
-8.000000e+01
 30
0.000000e+00
 11
6.700000e+02
 21
-8.000000e+01
 31
0.000000e+00
 0
LINE
 8
LEGENDA_GUITARRA_EXTERIOR
 6
CONTINUOUS
 62
     256
 10
-2.000000e+02
 20
-9.000000e+01
 30
0.000000e+00
 11
6.700000e+02
 21
-9.000000e+01
 31
0.000000e+00
 0
LINE
 8
LEGENDA_GUITARRA_EXTERIOR
 6
CONTINUOUS
 62
     256
 10
-2.000000e+02
 20
-9.000000e+01
 30
0.000000e+00
 11
-2.000000e+02
 21
0.000000e+00
 31
0.000000e+00
 0
LINE
 8
LEGENDA_GUITARRA_EXTERIOR
 6
CONTINUOUS
 62
     256
 10
6.700000e+02
 20
-9.000000e+01
 30
0.000000e+00
 11
6.700000e+02
 21
0.000000e+00
 31
0.000000e+00
  0
TEXT
  8
LEGENDA_GUITARRA_TEXTO
 72
     0
 73
 2
 62
     256
 10
-1.950000e+02
 20
5.000000e+00
 30
0.000000e+00
 11
-1.950000e+02
 21
5.000000e+00
 31
0.000000e+00
 40
4.500000e+00
 50
0.000000e+00
  1
PLANO DE REFERENCIA:
  0
TEXT
  8
LEGENDA_GUITARRA_TEXTO
 72
     0
 73
 2
 62
     256
 10
-9.500000e+01
 20
5.000000e+00
 30
0.000000e+00
 11
-9.500000e+01
 21
5.000000e+00
 31
0.000000e+00
 40
4.500000e+00
 50
0.000000e+00
  1
0.0 m
  0
TEXT
  8
LEGENDA_GUITARRA_TEXTO
 72
     0
 73
 2
 62
     256
 10
-1.950000e+02
 20
-5.000000e+00
 30
0.000000e+00
 11
-1.950000e+02
 21
-5.000000e+00
 31
0.000000e+00
 40
4.500000e+00
 50
0.000000e+00
  1
COTA DO TERRENO
  0
TEXT
  8
LEGENDA_GUITARRA_TEXTO
 72
     0
 73
 2
 62
     256
 10
-1.950000e+02
 20
-1.500000e+01
 30
0.000000e+00
 11
-1.950000e+02
 21
-1.500000e+01
 31
0.000000e+00
 40
4.500000e+00
 50
0.000000e+00
  1
NUMERO DO APOIO
  0
TEXT
  8
LEGENDA_GUITARRA_TEXTO
 72
     0
 73
 2
 62
     256
 10
-1.950000e+02
 20
-2.500000e+01
 30
0.000000e+00
 11
-1.950000e+02
 21
-2.500000e+01
 31
0.000000e+00
 40
4.500000e+00
 50
0.000000e+00
  1
TIPO DO APOIO
  0
TEXT
  8
LEGENDA_GUITARRA_TEXTO
 72
     0
 73
 2
 62
     256
 10
-1.950000e+02
 20
-3.500000e+01
 30
0.000000e+00
 11
-1.950000e+02
 21
-3.500000e+01
 31
0.000000e+00
 40
4.500000e+00
 50
0.000000e+00
  1
ALTURA UTIL
  0
TEXT
  8
LEGENDA_GUITARRA_TEXTO
 72
     0
 73
 2
 62
     256
 10
-1.950000e+02
 20
-4.500000e+01
 30
0.000000e+00
 11
-1.950000e+02
 21
-4.500000e+01
 31
0.000000e+00
 40
4.500000e+00
 50
0.000000e+00
  1
ARMACAO
  0
TEXT
  8
LEGENDA_GUITARRA_TEXTO
 72
     0
 73
 2
 62
     256
 10
-1.950000e+02
 20
-5.500000e+01
 30
0.000000e+00
 11
-1.950000e+02
 21
-5.500000e+01
 31
0.000000e+00
 40
4.500000e+00
 50
0.000000e+00
  1
FIXACAO DOS CONDUTORES
  0
TEXT
  8
LEGENDA_GUITARRA_TEXTO
 72
     0
 73
 2
 62
     256
 10
-1.950000e+02
 20
-6.500000e+01
 30
0.000000e+00
 11
-1.950000e+02
 21
-6.500000e+01
 31
0.000000e+00
 40
4.500000e+00
 50
0.000000e+00
  1
DISTANCIA ENTRE APOIOS
  0
TEXT
  8
LEGENDA_GUITARRA_TEXTO
 72
     0
 73
 2
 62
     256
 10
-1.950000e+02
 20
-7.500000e+01
 30
0.000000e+00
 11
-1.950000e+02
 21
-7.500000e+01
 31
0.000000e+00
 40
4.500000e+00
 50
0.000000e+00
  1
DISTANCIA A ORIGEM
  0
TEXT
  8
LEGENDA_GUITARRA_TEXTO
 72
     0
 73
 2
 62
     256
 10
-1.950000e+02
 20
-8.500000e+01
 30
0.000000e+00
 11
-1.950000e+02
 21
-8.500000e+01
 31
0.000000e+00
 40
4.500000e+00
 50
0.000000e+00
  1
CULTURAS
  0
ENDSEC
  0
EOF
